<svg xmlns="http://www.w3.org/2000/svg" width="658.2039794921875" height="657.0209350585938" viewBox="-249.24725341796875 -227.29080200195312 658.2039794921875 657.0209350585938"><title>Neo4j Graph Visualization</title><desc>Created using Neo4j (http://www.neo4j.com/)</desc><g class="layer relationships"><g class="relationship" transform="translate(161.9839476393796 68.55855282358881) rotate(459.3293598987353)"><path class="outline" fill="#A5ABB6" stroke="none" d="M 31.26317983184346,8.894581878976458 L 31.52199887694598,7.92865605268739 A 130.40504531752254 130.40504531752254 0 0 0 46.20201673303013,10.970007142389761 L 46.05577015642635,11.959255310865018 A 131.40504531752254 131.40504531752254 0 0 1 31.26317983184346,8.894581878976458 Z M 78.08842271415327,12.745718201744296 L 77.99089895088673,11.750485005152484 A 130.40504531752254 130.40504531752254 0 0 0 92.80248134913865,9.433209111872946 L 92.16916597933383,6.500819021457113 L 99.7502774550764,8.444204930730995 L 93.64690184221175,13.343062565760723 L 93.01358647240693,10.41067247534489 A 131.40504531752254 131.40504531752254 0 0 1 78.08842271415327,12.745718201744296"/><text text-anchor="middle" pointer-events="none" font-size="8px" fill="#000000" x="62.06030717773213" y="15.832663501626428" transform="rotate(180 62.06030717773213 12.832663501626428)" font-family="sans-serif">LEARN</text></g><g class="relationship" transform="translate(161.9839476393796 68.55855282358881) rotate(252.5666290764837)"><path class="outline" fill="#A5ABB6" stroke="none" d="M 31.26317983184346,8.894581878976458 L 31.52199887694598,7.92865605268739 A 115.44276325274204 115.44276325274204 0 0 0 42.57865744071515,10.317530252320822 L 42.41561450363563,11.304149226732164 A 116.44276325274204 116.44276325274204 0 0 1 31.26317983184346,8.894581878976458 Z M 74.44106502520742,12.12978655843905 L 74.32907626751292,11.136077084724505 A 115.44276325274204 115.44276325274204 0 0 0 85.494138848713,9.320093578376044 L 84.86802716677204,6.3861569461808205 L 92.44434293749202,8.348155759212975 L 86.3289544246343,13.232009087969674 L 85.70284274269333,10.29807245577445 A 116.44276325274204 116.44276325274204 0 0 1 74.44106502520742,12.12978655843905"/><text text-anchor="middle" pointer-events="none" font-size="8px" fill="#000000" x="58.41269621625418" y="15.323761769964563" transform="rotate(180 58.41269621625418 12.323761769964563)" font-family="sans-serif">LEARN</text></g><g class="relationship" transform="translate(122.5679811967255 -56.961706912373565) rotate(432.5666290764837)"><path class="outline" fill="#A5ABB6" stroke="none" d="M 38.50762352901147,10.835724717245364 L 38.766442574113995,9.869798890956295 A 104.96280970919099 104.96280970919099 0 0 0 49.680322769503405,12.180414010413102 L 49.52548226904567,13.168353492070764 A 105.96280970919099 105.96280970919099 0 0 1 38.50762352901147,10.835724717245364 Z M 82.54681969998632,13.13575311012221 L 82.39002881277543,12.14812128718026 A 104.96280970919099 104.96280970919099 0 0 0 93.29932541897497,9.815961192431327 L 92.51714812950057,6.919722478542141 L 100.18757863296213,8.473587302639272 L 94.3422284716075,13.677612810950244 L 93.5600511821331,10.781374097061057 A 105.96280970919099 105.96280970919099 0 0 1 82.54681969998632,13.13575311012221"/><text text-anchor="middle" pointer-events="none" font-size="8px" fill="#000000" x="66.03693507507882" y="16.946268506676233" font-family="sans-serif">STUDY</text></g><g class="relationship" transform="translate(139.47523736211946 205.5707805763949) rotate(279.3293598987353)"><path class="outline" fill="#A5ABB6" stroke="none" d="M 38.50762352901147,10.835724717245364 L 38.766442574113995,9.869798890956295 A 119.00633013543221 119.00633013543221 0 0 0 53.29898591978929,12.807613768161318 L 53.16228259180146,13.798225801258553 A 120.00633013543221 120.00633013543221 0 0 1 38.50762352901147,10.835724717245364 Z M 86.19515253969456,13.767331126330788 L 86.05659647169375,12.776976535277583 A 119.00633013543221 119.00633013543221 0 0 0 100.58361909378888,9.81198309788292 L 99.80174290894469,6.915663082488646 L 107.4720118271829,8.470325335812166 L 101.62612067358116,13.673743118408616 L 100.84424448873696,10.777423103014343 A 120.00633013543221 120.00633013543221 0 0 1 86.19515253969456,13.767331126330788"/><text text-anchor="middle" pointer-events="none" font-size="8px" fill="#000000" x="69.67931801937193" y="17.42478898876469" font-family="sans-serif">STUDY</text></g><g class="relationship" transform="translate(83.37764646617237 93.57403628308545) rotate(349.38049865939786)"><path class="outline" fill="#68BDF6" stroke="none" d="M 40 1 L 55.96330783674884 1 L 55.96330783674884 -1 L 40 -1 Z M 106.96330783674884 1 L 122.92661567349768 1 L 122.92661567349768 4 L 130.92661567349768 0 L 122.92661567349768 -4 L 122.92661567349768 -1 L 106.96330783674884 -1 Z"/><text text-anchor="middle" pointer-events="none" font-size="8px" fill="#000000" x="81.46330783674884" y="3" font-family="sans-serif">COURSE_IS</text></g><g class="relationship" transform="translate(83.37764646617237 93.57403628308545) rotate(456.53863939992505)"><path class="outline" fill="#68BDF6" stroke="none" d="M 38.37821400646021,-11.318687630389897 L 38.89585209666525,-9.386835977811762 A 156.85943320584718 156.85943320584718 0 0 1 52.39332305780277,-12.37284669144438 L 52.04778135587709,-14.34277078445669 A 158.85943320584718 158.85943320584718 0 0 0 38.37821400646021,-11.318687630389897 Z M 103.14419682648557,-14.961375045637368 L 102.8464476083889,-12.983662881766492 A 156.85943320584718 156.85943320584718 0 0 1 116.41225282752289,-10.325296638150666 L 115.70617749768124,-7.409570720203474 L 124.4228803853293,-9.414337731221996 L 117.58904504392564,-15.184839834729322 L 116.88296971408398,-12.26911391678213 A 158.85943320584718 158.85943320584718 0 0 0 103.14419682648557,-14.961375045637368"/><text text-anchor="middle" pointer-events="none" font-size="8px" fill="#000000" x="77.58305861439547" y="-12.720124099858026" transform="rotate(180 77.58305861439547 -15.720124099858026)" font-family="sans-serif">COURSE_IS</text></g><g class="relationship" transform="translate(83.37764646617237 93.57403628308545) rotate(456.53863939992505)"><path class="outline" fill="#68BDF6" stroke="none" d="M 38.37821400646021,11.318687630389897 L 38.89585209666525,9.386835977811762 A 156.85943320584718 156.85943320584718 0 0 0 52.393323057802775,12.37284669144438 L 52.047781355877106,14.34277078445669 A 158.85943320584718 158.85943320584718 0 0 1 38.37821400646021,11.318687630389897 Z M 103.14419682648555,14.961375045637368 L 102.84644760838889,12.983662881766492 A 156.85943320584718 156.85943320584718 0 0 0 116.41225282752289,10.325296638150666 L 115.70617749768124,7.409570720203474 L 124.4228803853293,9.414337731221996 L 117.58904504392564,15.184839834729322 L 116.88296971408398,12.26911391678213 A 158.85943320584718 158.85943320584718 0 0 1 103.14419682648555,14.961375045637368"/><text text-anchor="middle" pointer-events="none" font-size="8px" fill="#000000" x="77.58305861439547" y="18.720124099858026" transform="rotate(180 77.58305861439547 15.720124099858026)" font-family="sans-serif">COURSE_IS</text></g><g class="relationship" transform="translate(83.37764646617237 93.57403628308545) rotate(497.5322817122002)"><path class="outline" fill="#68BDF6" stroke="none" d="M 40 1 L 48.94917825848212 1 L 48.94917825848212 -1 L 40 -1 Z M 99.94917825848212 1 L 108.89835651696424 1 L 108.89835651696424 4 L 116.89835651696424 0 L 108.89835651696424 -4 L 108.89835651696424 -1 L 99.94917825848212 -1 Z"/><text text-anchor="middle" pointer-events="none" font-size="8px" fill="#000000" x="74.44917825848212" y="3" transform="rotate(180 74.44917825848212 0)" font-family="sans-serif">COURSE_IS</text></g><g class="relationship" transform="translate(83.37764646617237 93.57403628308545) rotate(209.8554385807135)"><path class="outline" fill="#68BDF6" stroke="none" d="M 40 1 L 48.752115225933196 1 L 48.752115225933196 -1 L 40 -1 Z M 99.7521152259332 1 L 108.50423045186639 1 L 108.50423045186639 4 L 116.50423045186639 0 L 108.50423045186639 -4 L 108.50423045186639 -1 L 99.7521152259332 -1 Z"/><text text-anchor="middle" pointer-events="none" font-size="8px" fill="#000000" x="74.2521152259332" y="3" transform="rotate(180 74.2521152259332 0)" font-family="sans-serif">COURSE_IS</text></g><g class="relationship" transform="translate(83.37764646617237 93.57403628308545) rotate(284.59241161398154)"><path class="outline" fill="#68BDF6" stroke="none" d="M 38.37821400646021,-11.318687630389897 L 38.89585209666525,-9.386835977811762 A 141.48113567328082 141.48113567328082 0 0 1 48.564506294136976,-11.617315361248473 L 48.18354584864351,-13.58069742772696 A 143.48113567328082 143.48113567328082 0 0 0 38.37821400646021,-11.318687630389897 Z M 99.26364860950736,-14.228440189406484 L 98.93259764637666,-12.256029162310398 A 141.48113567328082 141.48113567328082 0 0 1 108.6547027648967,-10.271442471165377 L 107.95197646695864,-7.35490758363424 L 116.66637123095909,-9.369683972507573 L 109.82591326146014,-15.132333950383938 L 109.12318696352209,-12.2157990628528 A 143.48113567328082 143.48113567328082 0 0 0 99.26364860950736,-14.228440189406484"/><text text-anchor="middle" pointer-events="none" font-size="8px" fill="#000000" x="73.70721772118804" y="-12.196234259047515" font-family="sans-serif">COURSE_IS</text></g><g class="relationship" transform="translate(83.37764646617237 93.57403628308545) rotate(284.59241161398154)"><path class="outline" fill="#68BDF6" stroke="none" d="M 38.37821400646021,11.318687630389897 L 38.89585209666525,9.386835977811762 A 141.48113567328082 141.48113567328082 0 0 0 48.56450629413699,11.617315361248473 L 48.18354584864353,13.58069742772696 A 143.48113567328082 143.48113567328082 0 0 1 38.37821400646021,11.318687630389897 Z M 99.2636486095074,14.228440189406484 L 98.93259764637669,12.256029162310398 A 141.48113567328082 141.48113567328082 0 0 0 108.6547027648967,10.271442471165377 L 107.95197646695864,7.35490758363424 L 116.66637123095909,9.369683972507573 L 109.82591326146014,15.132333950383938 L 109.12318696352209,12.2157990628528 A 143.48113567328082 143.48113567328082 0 0 1 99.2636486095074,14.228440189406484"/><text text-anchor="middle" pointer-events="none" font-size="8px" fill="#000000" x="73.70721772118807" y="18.196234259047515" font-family="sans-serif">COURSE_IS</text></g><g class="relationship" transform="translate(83.37764646617237 93.57403628308545) rotate(318.8664515327029)"><path class="outline" fill="#68BDF6" stroke="none" d="M 40 1 L 55.98618730737833 1 L 55.98618730737833 -1 L 40 -1 Z M 106.98618730737833 1 L 122.97237461475666 1 L 122.97237461475666 4 L 130.97237461475666 0 L 122.97237461475666 -4 L 122.97237461475666 -1 L 106.98618730737833 -1 Z"/><text text-anchor="middle" pointer-events="none" font-size="8px" fill="#000000" x="81.48618730737833" y="3" font-family="sans-serif">COURSE_IS</text></g><g class="relationship" transform="translate(83.37764646617237 93.57403628308545) rotate(423.3943562082455)"><path class="outline" fill="#68BDF6" stroke="none" d="M 40 1 L 42.63028507964415 1 L 42.63028507964415 -1 L 40 -1 Z M 74.63028507964415 1 L 77.2605701592883 1 L 77.2605701592883 4 L 85.2605701592883 0 L 77.2605701592883 -4 L 77.2605701592883 -1 L 74.63028507964415 -1 Z"/><text text-anchor="middle" pointer-events="none" font-size="8px" fill="#000000" x="58.63028507964415" y="3" font-family="sans-serif">COU…</text></g><g class="relationship" transform="translate(83.37764646617237 93.57403628308545) rotate(394.07418727850813)"><path class="outline" fill="#68BDF6" stroke="none" d="M 34.14101615137755,-20.866025403784434 L 35.14101615137755,-19.13397459621556 A 100.68259171351444 100.68259171351444 0 0 1 58.35889890860982,-28.9006180303777 L 57.82010838607931,-30.82667742012437 A 102.68259171351444 102.68259171351444 0 0 0 34.14101615137755,-20.866025403784434 Z M 108.77121961806354,-31.94699934524597 L 108.3176099609387,-29.99911888716774 A 100.68259171351444 100.68259171351444 0 0 1 131.9423465774398,-21.262459142185186 L 130.55799500944963,-18.600961305213826 L 139.50112466536012,-18.45802090653526 L 134.2495991907567,-25.698288870470787 L 132.86524762276653,-23.036791033499426 A 102.68259171351444 102.68259171351444 0 0 0 108.77121961806354,-31.94699934524597"/><text text-anchor="middle" pointer-events="none" font-size="8px" fill="#000000" x="83.24703772686438" y="-30.59831233612266" font-family="sans-serif">COURSE_IS</text></g><g class="relationship" transform="translate(83.37764646617237 93.57403628308545) rotate(394.07418727850813)"><path class="outline" fill="#68BDF6" stroke="none" d="M 40 1 L 57.99388124582249 1 L 57.99388124582249 -1 L 40 -1 Z M 108.9938812458225 1 L 126.98776249164499 1 L 126.98776249164499 4 L 134.987762491645 0 L 126.98776249164499 -4 L 126.98776249164499 -1 L 108.9938812458225 -1 Z"/><text text-anchor="middle" pointer-events="none" font-size="8px" fill="#000000" x="83.4938812458225" y="3" font-family="sans-serif">COURSE_IS</text></g><g class="relationship" transform="translate(83.37764646617237 93.57403628308545) rotate(533.7301012224847)"><path class="outline" fill="#68BDF6" stroke="none" d="M 40 1 L 47.547393061517596 1 L 47.547393061517596 -1 L 40 -1 Z M 98.5473930615176 1 L 106.09478612303519 1 L 106.09478612303519 4 L 114.09478612303519 0 L 106.09478612303519 -4 L 106.09478612303519 -1 L 98.5473930615176 -1 Z"/><text text-anchor="middle" pointer-events="none" font-size="8px" fill="#000000" x="73.0473930615176" y="3" transform="rotate(180 73.0473930615176 0)" font-family="sans-serif">COURSE_IS</text></g><g class="relationship" transform="translate(83.37764646617237 93.57403628308545) rotate(247.51999009318791)"><path class="outline" fill="#68BDF6" stroke="none" d="M 40 1 L 50.47757032685158 1 L 50.47757032685158 -1 L 40 -1 Z M 101.47757032685158 1 L 111.95514065370315 1 L 111.95514065370315 4 L 119.95514065370315 0 L 111.95514065370315 -4 L 111.95514065370315 -1 L 101.47757032685158 -1 Z"/><text text-anchor="middle" pointer-events="none" font-size="8px" fill="#000000" x="75.97757032685158" y="3" transform="rotate(180 75.97757032685158 0)" font-family="sans-serif">COURSE_IS</text></g><g class="relationship" transform="translate(83.37764646617237 93.57403628308545) rotate(394.07418727850813)"><path class="outline" fill="#68BDF6" stroke="none" d="M 34.14101615137755,20.866025403784434 L 35.14101615137755,19.13397459621556 A 100.68259171351444 100.68259171351444 0 0 0 58.35889890860982,28.9006180303777 L 57.82010838607931,30.82667742012437 A 102.68259171351444 102.68259171351444 0 0 1 34.14101615137755,20.866025403784434 Z M 108.77121961806355,31.94699934524597 L 108.31760996093871,29.99911888716774 A 100.68259171351444 100.68259171351444 0 0 0 131.9423465774398,21.262459142185186 L 130.55799500944963,18.600961305213826 L 139.50112466536012,18.45802090653526 L 134.2495991907567,25.698288870470787 L 132.86524762276653,23.036791033499426 A 102.68259171351444 102.68259171351444 0 0 1 108.77121961806355,31.94699934524597"/><text text-anchor="middle" pointer-events="none" font-size="8px" fill="#000000" x="83.24703772686438" y="36.59831233612266" font-family="sans-serif">COURSE_IS</text></g><g class="relationship" transform="translate(372.4566560185368 208.778102306329) rotate(186.7911442962494)"><path class="outline" fill="#A5ABB6" stroke="none" d="M 31.26317983184346,8.894581878976458 L 31.52199887694598,7.92865605268739 A 143.2800185361891 143.2800185361891 0 0 0 49.34191148602078,11.509918565995235 L 49.207463674193704,12.500839241879504 A 144.2800185361891 144.2800185361891 0 0 1 31.26317983184346,8.894581878976458 Z M 81.24360621820712,13.256233949688436 L 81.15601259374219,12.26007765825969 A 143.2800185361891 143.2800185361891 0 0 0 99.12491537832194,9.522695824717697 L 98.48590124571574,6.591542308040426 L 106.07077593933661,8.520188434749425 L 99.9769342217969,13.430900513620726 L 99.33792008919069,10.499746996943454 A 144.2800185361891 144.2800185361891 0 0 1 81.24360621820712,13.256233949688436"/><text text-anchor="middle" pointer-events="none" font-size="8px" fill="#000000" x="65.21628439234372" y="16.270850784512845" transform="rotate(180 65.21628439234372 13.270850784512845)" font-family="sans-serif">LEARN</text></g><g class="relationship" transform="translate(315.6048795525429 307.8448931244532) rotate(233.0956551896943)"><path class="outline" fill="#A5ABB6" stroke="none" d="M 31.26317983184346,8.894581878976458 L 31.52199887694598,7.92865605268739 A 143.6910135952556 143.6910135952556 0 0 0 49.44243976077078,11.526886841798387 L 49.308335827876334,12.517854114306516 A 144.6910135952556 144.6910135952556 0 0 1 31.26317983184346,8.894581878976458 Z M 81.34456114515842,13.272294561012018 L 81.25725377875202,12.276113139898797 A 143.6910135952556 143.6910135952556 0 0 0 99.32720879528271,9.525441952184542 L 98.68801978358776,6.594326565965769 L 106.27300953174235,8.522520155932769 L 100.179460810876,13.433595800476237 L 99.54027179918104,10.502480414257464 A 144.6910135952556 144.6910135952556 0 0 1 81.34456114515842,13.272294561012018"/><text text-anchor="middle" pointer-events="none" font-size="8px" fill="#000000" x="65.3172696067467" y="16.28484222693112" transform="rotate(180 65.3172696067467 13.284842226931119)" font-family="sans-serif">LEARN</text></g><g class="relationship" transform="translate(182.7390878757322 329.56686387026645) rotate(288.28484498259604)"><path class="outline" fill="#A5ABB6" stroke="none" d="M 31.26317983184346,8.894581878976458 L 31.52199887694598,7.92865605268739 A 143.5575033984958 143.5575033984958 0 0 0 49.409781623222884,11.52137641432094 L 49.27556618519636,12.512328590863945 A 144.5575033984958 144.5575033984958 0 0 1 31.26317983184346,8.894581878976458 Z M 81.31176477892821,13.267078779624285 L 81.22436461181096,12.270905496109862 A 143.5575033984958 143.5575033984958 0 0 0 99.26149148919724,9.524550605720547 L 98.62235924027982,6.593422841805478 L 106.20731164648531,8.521763318899056 L 100.11366782108715,13.432720957607305 L 99.47453557216973,10.501593193692235 A 144.5575033984958 144.5575033984958 0 0 1 81.31176477892821,13.267078779624285"/><text text-anchor="middle" pointer-events="none" font-size="8px" fill="#000000" x="65.28446337650011" y="16.280297136773157" font-family="sans-serif">LEARN</text></g><g class="relationship" transform="translate(228.3222548751036 191.61370945172638) rotate(366.7911442962494)"><path class="outline" fill="#A5ABB6" stroke="none" d="M 38.50762352901147,10.835724717245364 L 38.766442574113995,9.869798890956295 A 131.1607245916822 131.1607245916822 0 0 0 56.43540157960943,13.324971467637624 L 56.31129480497127,14.317240336689224 A 132.1607245916822 132.1607245916822 0 0 1 38.50762352901147,10.835724717245364 Z M 89.349962746149,14.287686715454612 L 89.22408097053328,13.295641465192404 A 131.1607245916822 131.1607245916822 0 0 0 106.88683028986915,9.808864105677117 L 106.10519018392203,6.912480369917131 L 113.77533235763364,8.467767814427164 L 107.92901709779865,13.670709086690433 L 107.14737699185153,10.774325350930447 A 132.1607245916822 132.1607245916822 0 0 1 89.349962746149,14.287686715454612"/><text text-anchor="middle" pointer-events="none" font-size="8px" fill="#000000" x="72.83110866199654" y="17.838939530013164" font-family="sans-serif">STUDY</text></g><g class="relationship" transform="translate(228.3222548751036 191.61370945172638) rotate(413.0956551896943)"><path class="outline" fill="#A5ABB6" stroke="none" d="M 38.50762352901147,10.835724717245364 L 38.766442574113995,9.869798890956295 A 131.54969352189278 131.54969352189278 0 0 0 56.53582537861686,13.34121577554754 L 56.41208367447025,14.333530237124563 A 132.54969352189278 132.54969352189278 0 0 1 38.50762352901147,10.835724717245364 Z M 89.4508927341654,14.304017641517362 L 89.32537841831042,13.311925833005944 A 131.54969352189278 131.54969352189278 0 0 0 107.08853104121785,9.808768780448169 L 106.30689815051406,6.912383097537477 L 113.97703644979343,8.467689649291101 L 108.1307082288229,13.670616357662423 L 107.3490753381191,10.774230674751731 A 132.54969352189278 132.54969352189278 0 0 1 89.4508927341654,14.304017641517362"/><text text-anchor="middle" pointer-events="none" font-size="8px" fill="#000000" x="72.93196469214563" y="17.852193316314754" font-family="sans-serif">STUDY</text></g><g class="relationship" transform="translate(228.3222548751036 191.61370945172638) rotate(468.28484498259604)"><path class="outline" fill="#A5ABB6" stroke="none" d="M 38.50762352901147,10.835724717245364 L 38.766442574113995,9.869798890956295 A 131.42333207016296 131.42333207016296 0 0 0 56.50320113960586,13.335940533618071 L 56.37934107238121,14.328240228139379 A 132.42333207016296 132.42333207016296 0 0 1 38.50762352901147,10.835724717245364 Z M 89.41810454450925,14.298714317170095 L 89.29247109004376,13.306637588726659 A 131.42333207016296 131.42333207016296 0 0 0 107.02300612240458,9.808799718874802 L 106.24137088994634,6.912414667922503 L 113.91151044670299,8.46771501829762 L 108.06518643234891,13.670646453477866 L 107.28355119989067,10.774261402525568 A 132.42333207016296 132.42333207016296 0 0 1 89.41810454450925,14.298714317170095"/><text text-anchor="middle" pointer-events="none" font-size="8px" fill="#000000" x="72.8992003975488" y="17.847887657022596" transform="rotate(180 72.8992003975488 14.847887657022596)" font-family="sans-serif">STUDY</text></g><g class="relationship" transform="translate(182.7390878757322 329.56686387026645) rotate(212.01683266517978)"><path class="outline" fill="#A5ABB6" stroke="none" d="M 31.26317983184346,8.894581878976458 L 31.52199887694598,7.92865605268739 A 130.95553440122845 130.95553440122845 0 0 0 46.33587936379102,10.993453791989367 L 46.19018177288728,11.982782964714431 A 131.95553440122845 131.95553440122845 0 0 1 31.26317983184346,8.894581878976458 Z M 78.22302502619073,12.767869390872363 L 78.12596778760847,11.772590589511253 A 130.95553440122845 130.95553440122845 0 0 0 93.0722009431678,9.437177409575819 L 92.43863285851846,6.504841909992974 L 100.01991178963598,8.447574461991174 L 93.91695838936691,13.34695807568628 L 93.28339030471757,10.414622576103435 A 131.95553440122845 131.95553440122845 0 0 1 78.22302502619073,12.767869390872363"/><text text-anchor="middle" pointer-events="none" font-size="8px" fill="#000000" x="62.1949355495512" y="15.85139403135625" transform="rotate(180 62.1949355495512 12.85139403135625)" font-family="sans-serif">LEARN</text></g><g class="relationship" transform="translate(64.78223489534423 255.8110476799301) rotate(392.0168326651798)"><path class="outline" fill="#A5ABB6" stroke="none" d="M 38.50762352901147,10.835724717245364 L 38.766442574113995,9.869798890956295 A 119.52474849419936 119.52474849419936 0 0 0 53.432690683385474,12.830105033067369 L 53.296576335795734,13.820798166373649 A 120.52474849419936 120.52474849419936 0 0 1 38.50762352901147,10.835724717245364 Z M 86.3297576762861,13.789963126422492 L 86.19179402949547,12.799525833019104 A 119.52474849419936 119.52474849419936 0 0 0 100.85248995059416,9.811844262501626 L 100.07062427430026,6.9155214102916975 L 107.74088755179966,8.470211493184138 L 101.89497751898605,13.673608065448198 L 101.11311184269215,10.777285213238269 A 120.52474849419936 120.52474849419936 0 0 1 86.3297576762861,13.789963126422492"/><text text-anchor="middle" pointer-events="none" font-size="8px" fill="#000000" x="69.81376168601103" y="17.442453642685635" font-family="sans-serif">STUDY</text></g><g class="relationship" transform="translate(251.37674764785405 62.0746720396176) rotate(315.1944161513104)"><path class="outline" fill="#A5ABB6" stroke="none" d="M 40 0.5 L 55.39153005434585 0.5 L 55.39153005434585 -0.5 L 40 -0.5 Z M 88.39153005434585 0.5 L 103.7830601086917 0.5 L 103.7830601086917 3.5 L 110.7830601086917 0 L 103.7830601086917 -3.5 L 103.7830601086917 -0.5 L 88.39153005434585 -0.5 Z"/><text text-anchor="middle" pointer-events="none" font-size="8px" fill="#000000" x="71.89153005434585" y="3" font-family="sans-serif">STUDY</text></g><g class="relationship" transform="translate(212.15033737492456 -18.894390208653384) rotate(351.91915833404096)"><path class="outline" fill="#A5ABB6" stroke="none" d="M 40 0.5 L 54.899481817109674 0.5 L 54.899481817109674 -0.5 L 40 -0.5 Z M 87.89948181710967 0.5 L 102.79896363421935 0.5 L 102.79896363421935 3.5 L 109.79896363421935 0 L 102.79896363421935 -3.5 L 102.79896363421935 -0.5 L 87.89948181710967 -0.5 Z"/><text text-anchor="middle" pointer-events="none" font-size="8px" fill="#000000" x="71.39948181710967" y="3" font-family="sans-serif">STUDY</text></g><g class="relationship" transform="translate(185.9214328100408 -189.59994717007348) rotate(475.5310501590312)"><path class="outline" fill="#A5ABB6" stroke="none" d="M 31.26317983184346,8.894581878976458 L 31.52199887694598,7.92865605268739 A 147.02440561764962 147.02440561764962 0 0 0 50.258411958056115,11.663964228358594 L 50.12703034759173,12.655296096317954 A 148.02440561764962 148.02440561764962 0 0 1 31.26317983184346,8.894581878976458 Z M 82.1638735892252,13.40207915274496 L 82.07882573248142,12.405702285257945 A 147.02440561764962 147.02440561764962 0 0 0 100.96893503692446,9.547473326720317 L 100.32834302583558,6.616664244686978 L 107.9142548968504,8.541226814518474 L 101.8230577183763,13.455218769431434 L 101.18246570728742,10.524409687398096 A 148.02440561764962 148.02440561764962 0 0 1 82.1638735892252,13.40207915274496"/><text text-anchor="middle" pointer-events="none" font-size="8px" fill="#000000" x="66.13683560425648" y="16.398327917350514" transform="rotate(180 66.13683560425648 13.398327917350514)" font-family="sans-serif">LEARN</text></g><g class="relationship" transform="translate(122.5679811967255 -56.961706912373565) rotate(295.5310501590312)"><path class="outline" fill="#A5ABB6" stroke="none" d="M 38.50762352901147,10.835724717245364 L 38.766442574113995,9.869798890956295 A 134.70656219103006 134.70656219103006 0 0 0 57.35096335036319,13.47242044380181 L 57.23010730033654,14.465090487256305 A 135.70656219103006 135.70656219103006 0 0 1 38.50762352901147,10.835724717245364 Z M 90.26997855554218,14.435906741786908 L 90.14736906697021,13.44345174869548 A 134.70656219103006 134.70656219103006 0 0 0 108.72549653902612,9.808004847982566 L 107.94392147099451,6.91160356138028 L 115.61402871910339,8.46706323700918 L 109.76759662973494,13.669873230118947 L 108.98602156170332,10.773471943516661 A 135.70656219103006 135.70656219103006 0 0 1 90.26997855554218,14.435906741786908"/><text text-anchor="middle" pointer-events="none" font-size="8px" fill="#000000" x="73.75049275361137" y="17.95976094707737" font-family="sans-serif">STUDY</text></g><g class="relationship" transform="translate(-28.49482190411683 -190.79079521538395) rotate(429.6279884297938)"><path class="outline" fill="#A5ABB6" stroke="none" d="M 31.26317983184346,8.894581878976458 L 31.52199887694598,7.92865605268739 A 144.34565266362785 144.34565266362785 0 0 0 49.602598480785986,11.553883199061374 L 49.469038487620224,12.544923928913363 A 145.34565266362785 145.34565266362785 0 0 1 31.26317983184346,8.894581878976458 Z M 81.50539256831763,13.297849038647342 L 81.41853761618854,12.301628070543046 A 144.34565266362785 144.34565266362785 0 0 0 99.64948209534398,9.529802445591672 L 99.01001539862959,6.59874762798877 L 106.59518778586983,8.526222622858574 L 100.50210435762985,13.437875535728876 L 99.86263766091545,10.506820718125974 A 145.34565266362785 145.34565266362785 0 0 1 81.50539256831763,13.297849038647342"/><text text-anchor="middle" pointer-events="none" font-size="8px" fill="#000000" x="65.47814973981862" y="16.307128432679434" font-family="sans-serif">LEARN</text></g><g class="relationship" transform="translate(22.217027089139233 -54.22659179055852) rotate(249.6279884297938)"><path class="outline" fill="#A5ABB6" stroke="none" d="M 38.50762352901147,10.835724717245364 L 38.766442574113995,9.869798890956295 A 132.16936851772687 132.16936851772687 0 0 0 56.69581843700911,13.367058868081898 L 56.57265393927995,14.359445136880055 A 133.16936851772687 133.16936851772687 0 0 1 38.50762352901147,10.835724717245364 Z M 89.61168303014607,14.329997668458361 L 89.4867497148525,13.337832527602387 A 132.16936851772687 132.16936851772687 0 0 0 107.40986292695005,9.808617463752851 L 106.62824148952926,6.912228690027153 L 114.29837363854682,8.46756557205861 L 108.45202484351113,13.67046916205378 L 107.67040340609033,10.774080388328082 A 133.16936851772687 133.16936851772687 0 0 1 89.61168303014607,14.329997668458361"/><text text-anchor="middle" pointer-events="none" font-size="8px" fill="#000000" x="73.0926396106492" y="17.87330821659188" transform="rotate(180 73.0926396106492 14.87330821659188)" font-family="sans-serif">STUDY</text></g><g class="relationship" transform="translate(-172.47959015468666 -63.17859896837785) rotate(393.2787650320131)"><path class="outline" fill="#A5ABB6" stroke="none" d="M 31.26317983184346,8.894581878976458 L 31.52199887694598,7.92865605268739 A 140.29105103546357 140.29105103546357 0 0 0 48.61134788351487,11.386053136248961 L 48.4743423744892,12.376623421739396 A 141.29105103546357 141.29105103546357 0 0 1 31.26317983184346,8.894581878976458 Z M 80.50983588330487,13.139026065704059 L 80.42010733327979,12.143059807585644 A 140.29105103546357 140.29105103546357 0 0 0 97.6545791155726,9.502524549898439 L 97.01684953510934,6.571091285742125 L 104.60087832868122,8.503061072843538 L 98.50488522285696,13.411102235440193 L 97.8671556423937,10.479668971283878 A 141.29105103546357 141.29105103546357 0 0 1 80.50983588330487,13.139026065704059"/><text text-anchor="middle" pointer-events="none" font-size="8px" fill="#000000" x="64.48230121867662" y="16.16910418617013" font-family="sans-serif">LEARN</text></g><g class="relationship" transform="translate(-52.355997068163106 15.664138566396984) rotate(213.2787650320131)"><path class="outline" fill="#A5ABB6" stroke="none" d="M 38.50762352901147,10.835724717245364 L 38.766442574113995,9.869798890956295 A 128.33370445046316 128.33370445046316 0 0 0 55.70560904225857,13.20636786698735 L 55.578783120402036,14.198292856865748 A 129.33370445046316 129.33370445046316 0 0 1 38.50762352901147,10.835724717245364 Z M 88.61635232327683,14.168437648602605 L 88.48773385541878,13.17674349730099 A 128.33370445046316 128.33370445046316 0 0 0 105.42084231804206,9.80956501073984 L 104.6391491600339,6.913195592533108 L 112.30931982019247,8.468342545088555 L 106.46309986205296,13.671390901682152 L 105.68140670404479,10.775021483475419 A 129.33370445046316 129.33370445046316 0 0 1 88.61635232327683,14.168437648602605"/><text text-anchor="middle" pointer-events="none" font-size="8px" fill="#000000" x="72.09807309815403" y="17.742611224823378" transform="rotate(180 72.09807309815403 14.742611224823378)" font-family="sans-serif">STUDY</text></g><g class="relationship" transform="translate(-212.74725447028763 122.63800888302289) rotate(355.1080924648704)"><path class="outline" fill="#A5ABB6" stroke="none" d="M 31.26317983184346,8.894581878976458 L 31.52199887694598,7.92865605268739 A 139.85820906036085 139.85820906036085 0 0 0 48.505631019657145,11.368046500536167 L 48.36824662080683,12.358564308025024 A 140.85820906036085 140.85820906036085 0 0 1 31.26317983184346,8.894581878976458 Z M 80.40363896281987,13.121991809007312 L 80.31359329170327,12.126054171846647 A 139.85820906036085 139.85820906036085 0 0 0 97.44177969431021,9.499574023581191 L 96.80423801052277,6.5680998890486215 L 104.38814295551745,8.500555783832583 L 98.29183527269348,13.408206202957949 L 97.65429358890603,10.47673206842538 A 140.85820906036085 140.85820906036085 0 0 1 80.40363896281987,13.121991809007312"/><text text-anchor="middle" pointer-events="none" font-size="8px" fill="#000000" x="64.37607464826355" y="16.154370883176085" font-family="sans-serif">LEARN</text></g><g class="relationship" transform="translate(-69.79541690074788 110.40305197317831) rotate(535.1080924648704)"><path class="outline" fill="#A5ABB6" stroke="none" d="M 38.50762352901147,10.835724717245364 L 38.766442574113995,9.869798890956295 A 127.9245744059948 127.9245744059948 0 0 0 55.60000553133959,13.189122523495811 L 55.47277623774018,14.180995855554997 A 128.9245744059948 128.9245744059948 0 0 1 38.50762352901147,10.835724717245364 Z M 88.51017528920559,14.151096498021943 L 88.38115088405377,13.159455079526722 A 127.9245744059948 127.9245744059948 0 0 0 105.20867819252611,9.809667639251069 L 104.4269772664855,6.9133003175483765 L 112.09715209750583,8.468426698773403 L 106.2509460939136,13.671490734854661 L 105.46924516787298,10.775123413151968 A 128.9245744059948 128.9245744059948 0 0 1 88.51017528920559,14.151096498021943"/><text text-anchor="middle" pointer-events="none" font-size="8px" fill="#000000" x="71.99198494716532" y="17.728670467927856" transform="rotate(180 71.99198494716532 14.728670467927856)" font-family="sans-serif">STUDY</text></g><g class="relationship" transform="translate(-144.0886469169805 291.60046949676394) rotate(320.502942686187)"><path class="outline" fill="#A5ABB6" stroke="none" d="M 31.26317983184346,8.894581878976458 L 31.52199887694598,7.92865605268739 A 142.54259162194043 142.54259162194043 0 0 0 49.1615826159605,11.479435236404157 L 49.026513136081256,12.470271365945848 A 143.54259162194043 143.54259162194043 0 0 1 31.26317983184346,8.894581878976458 Z M 81.06250334631103,13.227383893944477 L 80.97439174907412,12.231273284407393 A 142.54259162194043 142.54259162194043 0 0 0 98.76202086808257,9.517752025632788 L 98.12332156714108,6.5865298909291 L 105.70798906588142,8.515990679219916 L 99.61361993600455,13.426048205237706 L 98.97492063506306,10.494826070534018 A 143.54259162194043 143.54259162194043 0 0 1 81.06250334631103,13.227383893944477"/><text text-anchor="middle" pointer-events="none" font-size="8px" fill="#000000" x="65.03512776710744" y="16.24574719600679" font-family="sans-serif">LEARN</text></g><g class="relationship" transform="translate(-32.35965979515041 199.50783739065068) rotate(500.502942686187)"><path class="outline" fill="#A5ABB6" stroke="none" d="M 38.50762352901147,10.835724717245364 L 38.766442574113995,9.869798890956295 A 130.4629638407443 130.4629638407443 0 0 0 56.25526108690153,13.295786917440012 L 56.130494020980905,14.28797297824795 A 131.4629638407443 131.4629638407443 0 0 1 38.50762352901147,10.835724717245364 Z M 89.16890287994175,14.258345479610739 L 89.04235651207289,13.266384786448356 A 130.4629638407443 130.4629638407443 0 0 0 106.52500232872508,9.809035775960075 L 105.74334922891663,6.912655546853432 L 113.41349837994198,8.467908581258143 L 107.56720646180301,13.670876081435598 L 106.78555336199456,10.774495852328956 A 131.4629638407443 131.4629638407443 0 0 1 89.16890287994175,14.258345479610739"/><text text-anchor="middle" pointer-events="none" font-size="8px" fill="#000000" x="72.65018449818426" y="17.81516392502931" transform="rotate(180 72.65018449818426 14.81516392502931)" font-family="sans-serif">STUDY</text></g><g class="relationship" transform="translate(24.82739139485568 393.23014716930345) rotate(286.2118817065185)"><path class="outline" fill="#A5ABB6" stroke="none" d="M 31.26317983184346,8.894581878976458 L 31.52199887694598,7.92865605268739 A 139.11406259556688 139.11406259556688 0 0 0 48.32392862041501,11.337047172200641 L 48.18588765791594,12.327473692782718 A 140.11406259556688 140.11406259556688 0 0 1 31.26317983184346,8.894581878976458 Z M 80.22110161401326,13.09266912355227 L 80.13050589749058,12.096781370766962 A 139.11406259556688 139.11406259556688 0 0 0 97.07600738382327,9.494483827299236 L 96.43878985640195,6.562939213491173 L 104.0224810706123,8.496233698950848 L 97.92563075371835,13.403209979043321 L 97.28841322629704,10.471665365235259 A 140.11406259556688 140.11406259556688 0 0 1 80.22110161401326,13.09266912355227"/><text text-anchor="middle" pointer-events="none" font-size="8px" fill="#000000" x="64.19348707877575" y="16.12904180818714" font-family="sans-serif">LEARN</text></g><g class="relationship" transform="translate(64.78223489534423 255.8110476799301) rotate(466.2118817065185)"><path class="outline" fill="#A5ABB6" stroke="none" d="M 38.50762352901147,10.835724717245364 L 38.766442574113995,9.869798890956295 A 127.22134934280729 127.22134934280729 0 0 0 55.41849904467871,13.159431462439883 L 55.290570424466225,14.151214840063517 A 128.2213493428073 128.2213493428073 0 0 1 38.50762352901147,10.835724717245364 Z M 88.32767009880025,14.12123929616439 L 88.1979419415442,13.129689698204231 A 127.22134934280729 127.22134934280729 0 0 0 104.84400143642559,9.809844754971348 L 104.06228710435795,6.913481051456188 L 111.73246913330556,8.468571930732722 L 105.88628721251575,13.671663026324893 L 105.10457288044812,10.775299322809733 A 128.2213493428073 128.2213493428073 0 0 1 88.32767009880025,14.12123929616439"/><text text-anchor="middle" pointer-events="none" font-size="8px" fill="#000000" x="71.80963606191638" y="17.704708675106488" transform="rotate(180 71.80963606191638 14.704708675106488)" font-family="sans-serif">STUDY</text></g></g><g class="layer nodes"><g class="node" transform="translate(161.9839476393796,68.55855282358881)"><circle class="outline" cx="0" cy="0" r="32.5" fill="#FFD86E" stroke="#EDBA39" stroke-width="2px"/><text text-anchor="middle" pointer-events="none" y="5" font-size="10px" fill="#604A0E" font-family="sans-serif"> User №3</text></g><g class="node" transform="translate(83.37764646617237,93.57403628308545)"><circle class="outline" cx="0" cy="0" r="40" fill="#A5ABB6" stroke="#9AA1AC" stroke-width="2px"/><text text-anchor="middle" pointer-events="none" y="5" font-size="10px" fill="#FFFFFF" font-family="sans-serif"> All courses</text></g><g class="node" transform="translate(139.47523736211946,205.5707805763949)"><circle class="outline" cx="0" cy="0" r="40" fill="#FF756E" stroke="#E06760" stroke-width="2px"/><text text-anchor="middle" pointer-events="none" y="-5" font-size="10px" fill="#FFFFFF" font-family="sans-serif"> Mobile</text><text text-anchor="middle" pointer-events="none" y="5" font-size="10px" fill="#FFFFFF" font-family="sans-serif"> applications for</text><text text-anchor="middle" pointer-events="none" y="15" font-size="10px" fill="#FFFFFF" font-family="sans-serif"> Android</text></g><g class="node" transform="translate(228.3222548751036,191.61370945172638)"><circle class="outline" cx="0" cy="0" r="40" fill="#FF756E" stroke="#E06760" stroke-width="2px"/><text text-anchor="middle" pointer-events="none" y="0" font-size="10px" fill="#FFFFFF" font-family="sans-serif"> Work with html,</text><text text-anchor="middle" pointer-events="none" y="10" font-size="10px" fill="#FFFFFF" font-family="sans-serif"> css</text></g><g class="node" transform="translate(182.7390878757322,329.56686387026645)"><circle class="outline" cx="0" cy="0" r="32.5" fill="#FFD86E" stroke="#EDBA39" stroke-width="2px"/><text text-anchor="middle" pointer-events="none" y="5" font-size="10px" fill="#604A0E" font-family="sans-serif"> User №1</text></g><g class="node" transform="translate(315.6048795525429,307.8448931244532)"><circle class="outline" cx="0" cy="0" r="32.5" fill="#FFD86E" stroke="#EDBA39" stroke-width="2px"/><text text-anchor="middle" pointer-events="none" y="5" font-size="10px" fill="#604A0E" font-family="sans-serif"> User №5</text></g><g class="node" transform="translate(372.4566560185368,208.778102306329)"><circle class="outline" cx="0" cy="0" r="32.5" fill="#FFD86E" stroke="#EDBA39" stroke-width="2px"/><text text-anchor="middle" pointer-events="none" y="5" font-size="10px" fill="#604A0E" font-family="sans-serif"> User №10</text></g><g class="node" transform="translate(353.0363742377159,-38.89738169665542)"><circle class="outline" cx="0" cy="0" r="32.5" fill="#FFD86E" stroke="#EDBA39" stroke-width="2px"/><text text-anchor="middle" pointer-events="none" y="-5" font-size="10px" fill="#604A0E" font-family="sans-serif"> No data</text><text text-anchor="middle" pointer-events="none" y="5" font-size="10px" fill="#604A0E" font-family="sans-serif"> about</text><text text-anchor="middle" pointer-events="none" y="15" font-size="10px" fill="#604A0E" font-family="sans-serif"> students</text></g><g class="node" transform="translate(212.15033737492456,-18.894390208653384)"><circle class="outline" cx="0" cy="0" r="40" fill="#FF756E" stroke="#E06760" stroke-width="2px"/><text text-anchor="middle" pointer-events="none" y="0" font-size="10px" fill="#FFFFFF" font-family="sans-serif"> Basics of</text><text text-anchor="middle" pointer-events="none" y="10" font-size="10px" fill="#FFFFFF" font-family="sans-serif"> cryptography</text></g><g class="node" transform="translate(122.5679811967255,-56.961706912373565)"><circle class="outline" cx="0" cy="0" r="40" fill="#FF756E" stroke="#E06760" stroke-width="2px"/><text text-anchor="middle" pointer-events="none" y="0" font-size="10px" fill="#FFFFFF" font-family="sans-serif"> Programming</text><text text-anchor="middle" pointer-events="none" y="10" font-size="10px" fill="#FFFFFF" font-family="sans-serif"> c++</text></g><g class="node" transform="translate(185.9214328100408,-189.59994717007348)"><circle class="outline" cx="0" cy="0" r="32.5" fill="#FFD86E" stroke="#EDBA39" stroke-width="2px"/><text text-anchor="middle" pointer-events="none" y="5" font-size="10px" fill="#604A0E" font-family="sans-serif"> User №7</text></g><g class="node" transform="translate(251.37674764785405,62.0746720396176)"><circle class="outline" cx="0" cy="0" r="40" fill="#FF756E" stroke="#E06760" stroke-width="2px"/><text text-anchor="middle" pointer-events="none" y="0" font-size="10px" fill="#FFFFFF" font-family="sans-serif"> Introduction to</text><text text-anchor="middle" pointer-events="none" y="10" font-size="10px" fill="#FFFFFF" font-family="sans-serif"> Neural Networ…</text></g><g class="node" transform="translate(22.217027089139233,-54.22659179055852)"><circle class="outline" cx="0" cy="0" r="40" fill="#FF756E" stroke="#E06760" stroke-width="2px"/><text text-anchor="middle" pointer-events="none" y="0" font-size="10px" fill="#FFFFFF" font-family="sans-serif"> Programming</text><text text-anchor="middle" pointer-events="none" y="10" font-size="10px" fill="#FFFFFF" font-family="sans-serif"> Java</text></g><g class="node" transform="translate(-28.49482190411683,-190.79079521538395)"><circle class="outline" cx="0" cy="0" r="32.5" fill="#FFD86E" stroke="#EDBA39" stroke-width="2px"/><text text-anchor="middle" pointer-events="none" y="5" font-size="10px" fill="#604A0E" font-family="sans-serif"> User №2</text></g><g class="node" transform="translate(-172.47959015468666,-63.17859896837785)"><circle class="outline" cx="0" cy="0" r="32.5" fill="#FFD86E" stroke="#EDBA39" stroke-width="2px"/><text text-anchor="middle" pointer-events="none" y="5" font-size="10px" fill="#604A0E" font-family="sans-serif"> User №8</text></g><g class="node" transform="translate(-52.355997068163106,15.664138566396984)"><circle class="outline" cx="0" cy="0" r="40" fill="#FF756E" stroke="#E06760" stroke-width="2px"/><text text-anchor="middle" pointer-events="none" y="0" font-size="10px" fill="#FFFFFF" font-family="sans-serif"> The basics of</text><text text-anchor="middle" pointer-events="none" y="10" font-size="10px" fill="#FFFFFF" font-family="sans-serif"> web design</text></g><g class="node" transform="translate(-69.79541690074788,110.40305197317831)"><circle class="outline" cx="0" cy="0" r="40" fill="#FF756E" stroke="#E06760" stroke-width="2px"/><text text-anchor="middle" pointer-events="none" y="0" font-size="10px" fill="#FFFFFF" font-family="sans-serif"> Programming</text><text text-anchor="middle" pointer-events="none" y="10" font-size="10px" fill="#FFFFFF" font-family="sans-serif"> Python</text></g><g class="node" transform="translate(-212.74725447028763,122.63800888302289)"><circle class="outline" cx="0" cy="0" r="32.5" fill="#FFD86E" stroke="#EDBA39" stroke-width="2px"/><text text-anchor="middle" pointer-events="none" y="5" font-size="10px" fill="#604A0E" font-family="sans-serif"> User №4</text></g><g class="node" transform="translate(-144.0886469169805,291.60046949676394)"><circle class="outline" cx="0" cy="0" r="32.5" fill="#FFD86E" stroke="#EDBA39" stroke-width="2px"/><text text-anchor="middle" pointer-events="none" y="5" font-size="10px" fill="#604A0E" font-family="sans-serif"> User №6</text></g><g class="node" transform="translate(-32.35965979515041,199.50783739065068)"><circle class="outline" cx="0" cy="0" r="40" fill="#FF756E" stroke="#E06760" stroke-width="2px"/><text text-anchor="middle" pointer-events="none" y="5" font-size="10px" fill="#FFFFFF" font-family="sans-serif"> PHP Basics.</text></g><g class="node" transform="translate(64.78223489534423,255.8110476799301)"><circle class="outline" cx="0" cy="0" r="40" fill="#FF756E" stroke="#E06760" stroke-width="2px"/><text text-anchor="middle" pointer-events="none" y="0" font-size="10px" fill="#FFFFFF" font-family="sans-serif"> Computer</text><text text-anchor="middle" pointer-events="none" y="10" font-size="10px" fill="#FFFFFF" font-family="sans-serif"> graphics</text></g><g class="node" transform="translate(24.82739139485568,393.23014716930345)"><circle class="outline" cx="0" cy="0" r="32.5" fill="#FFD86E" stroke="#EDBA39" stroke-width="2px"/><text text-anchor="middle" pointer-events="none" y="5" font-size="10px" fill="#604A0E" font-family="sans-serif"> User №9</text></g></g></svg>