<svg xmlns="http://www.w3.org/2000/svg" width="623.6251220703125" height="571.1615600585938" viewBox="-217.4929656982422 -212.40621948242188 623.6251220703125 571.1615600585938"><title>Neo4j Graph Visualization</title><desc>Created using Neo4j (http://www.neo4j.com/)</desc><g class="layer relationships"><g class="relationship" transform="translate(112.96296388319732 66.0031540505682) rotate(404.24184915971506)"><path class="outline" fill="#A5ABB6" stroke="none" d="M 21.15063509461097,-13.366025403784437 L 22.15063509461097,-11.633974596215559 A 96.96658618312554 96.96658618312554 0 0 1 35.616729106069585,-18.081423731280836 L 34.89447620517911,-19.946457443350212 A 98.96658618312554 98.96658618312554 0 0 0 21.15063509461097,-13.366025403784437 Z M 97.3747067531803,-22.94389218960393 L 96.83430661211601,-21.01828379547554 A 96.96658618312554 96.96658618312554 0 0 1 110.85575909701406,-15.889525808551015 L 109.61135628278443,-13.159789257904162 L 118.5498575034822,-13.48103048748763 L 112.92976378739677,-20.439086726295773 L 111.68536097316714,-17.70935017564892 A 98.96658618312554 98.96658618312554 0 0 0 97.3747067531803,-22.94389218960393"/><text text-anchor="middle" pointer-events="none" font-size="8px" fill="#000000" x="65.93946546538768" y="-22.512492159373664" font-family="sans-serif">ABOUT_USER1</text></g><g class="relationship" transform="translate(219.07774538111235 169.34618022683134) rotate(391.8615859960012)"><path class="outline" fill="#A5ABB6" stroke="none" d="M 31.26317983184346,8.894581878976458 L 31.52199887694598,7.92865605268739 A 139.19957478803065 139.19957478803065 0 0 0 48.344805565221534,11.340612131079183 L 48.20684038561316,12.331049210966484 A 140.19957478803065 140.19957478803065 0 0 1 31.26317983184346,8.894581878976458 Z M 80.24207513107748,13.096041097497618 L 80.15154293618312,12.100147568204648 A 139.19957478803065 139.19957478803065 0 0 0 97.11803460252125,9.495069894114796 L 96.4807797528864,6.563533393128177 L 104.0644955797625,8.496731328464596 L 97.9677077353677,13.403785228763622 L 97.33045288573285,10.472248727777004 A 140.19957478803065 140.19957478803065 0 0 1 80.24207513107748,13.096041097497618"/><text text-anchor="middle" pointer-events="none" font-size="8px" fill="#000000" x="64.21446631730855" y="16.131952414092325" font-family="sans-serif">LEARN</text></g><g class="relationship" transform="translate(112.96296388319732 66.0031540505682) rotate(404.24184915971506)"><path class="outline" fill="#A5ABB6" stroke="none" d="M 25 1 L 36.811001734411576 1 L 36.811001734411576 -1 L 25 -1 Z M 95.81100173441158 1 L 107.62200346882315 1 L 107.62200346882315 4 L 115.62200346882315 0 L 107.62200346882315 -4 L 107.62200346882315 -1 L 95.81100173441158 -1 Z"/><text text-anchor="middle" pointer-events="none" font-size="8px" fill="#000000" x="66.31100173441158" y="3" font-family="sans-serif">ABOUT_USER</text></g><g class="relationship" transform="translate(112.96296388319732 66.0031540505682) rotate(404.24184915971506)"><path class="outline" fill="#A5ABB6" stroke="none" d="M 21.15063509461097,13.366025403784437 L 22.15063509461097,11.633974596215559 A 96.96658618312554 96.96658618312554 0 0 0 35.6167291060696,18.081423731280836 L 34.89447620517913,19.946457443350212 A 98.96658618312554 98.96658618312554 0 0 1 21.15063509461097,13.366025403784437 Z M 97.3747067531803,22.94389218960393 L 96.83430661211601,21.01828379547554 A 96.96658618312554 96.96658618312554 0 0 0 110.85575909701406,15.889525808551015 L 109.61135628278443,13.159789257904162 L 118.5498575034822,13.48103048748763 L 112.92976378739677,20.439086726295773 L 111.68536097316714,17.70935017564892 A 98.96658618312554 98.96658618312554 0 0 1 97.3747067531803,22.94389218960393"/><text text-anchor="middle" pointer-events="none" font-size="8px" fill="#000000" x="65.93946546538768" y="28.512492159373664" font-family="sans-serif">ABOUT_USER1</text></g><g class="relationship" transform="translate(219.07774538111235 169.34618022683134) rotate(450.6251176926205)"><path class="outline" fill="#A5ABB6" stroke="none" d="M 31.26317983184346,8.894581878976458 L 31.52199887694598,7.92865605268739 A 143.81992535410657 143.81992535410657 0 0 0 49.47397480415533,11.532205971769457 L 49.33997835149269,12.523187783244225 A 144.81992535410657 144.81992535410657 0 0 1 31.26317983184346,8.894581878976458 Z M 81.3762293221501,13.277329380607085 L 81.28901138810231,12.281140125505232 A 143.81992535410657 143.81992535410657 0 0 0 99.39066540862807,9.526301939403995 L 98.7514216311884,6.595198496499827 L 106.33644740497773,8.523250365862147 L 100.24299044521428,13.434439863276221 L 99.60374666777462,10.503336420372053 A 144.81992535410657 144.81992535410657 0 0 1 81.3762293221501,13.277329380607085"/><text text-anchor="middle" pointer-events="none" font-size="8px" fill="#000000" x="65.34894733080712" y="16.2892307931302" transform="rotate(180 65.34894733080712 13.289230793130201)" font-family="sans-serif">LEARN</text></g><g class="relationship" transform="translate(217.49121573476376 314.7553519783355) rotate(270.6251176926205)"><path class="outline" fill="#A5ABB6" stroke="none" d="M 38.50762352901147,10.835724717245364 L 38.766442574113995,9.869798890956295 A 131.67170855512387 131.67170855512387 0 0 0 56.56732772740426,13.346307814358681 L 56.443700101541495,14.338636494848942 A 132.67170855512387 132.67170855512387 0 0 1 38.50762352901147,10.835724717245364 Z M 89.48255294792077,14.309136745358416 L 89.35715345861188,13.317030416338667 A 131.67170855512387 131.67170855512387 0 0 0 107.15180201939073,9.808738932796317 L 106.37017138787978,6.912352640209672 L 114.04030847401138,8.467665174701887 L 108.19397619473865,13.670587322911842 L 107.4123455632277,10.774201030325198 A 132.67170855512387 132.67170855512387 0 0 1 89.48255294792077,14.309136745358416"/><text text-anchor="middle" pointer-events="none" font-size="8px" fill="#000000" x="72.96360195171428" y="17.85635087510809" font-family="sans-serif">STUDY</text></g><g class="relationship" transform="translate(340.6601325125918 244.91150117311997) rotate(211.86158599600122)"><path class="outline" fill="#A5ABB6" stroke="none" d="M 38.50762352901147,10.835724717245364 L 38.766442574113995,9.869798890956295 A 127.3021490899988 127.3021490899988 0 0 0 55.43935340940491,13.162846122440868 L 55.31150552978919,14.15463991132934 A 128.3021490899988 128.3021490899988 0 0 1 38.50762352901147,10.835724717245364 Z M 88.34864005269577,14.124673140592577 L 88.21899314553491,13.133112915763235 A 127.3021490899988 127.3021490899988 0 0 0 104.8859025457569,9.809824358454527 L 104.1041897575175,6.913460238268156 L 111.77437095756501,8.468555205926965 L 105.92818626340946,13.671643185369687 L 105.14647347517005,10.775279065183316 A 128.3021490899988 128.3021490899988 0 0 1 88.34864005269577,14.124673140592577"/><text text-anchor="middle" pointer-events="none" font-size="8px" fill="#000000" x="71.83058782659391" y="17.7074618573688" transform="rotate(180 71.83058782659391 14.707461857368799)" font-family="sans-serif">STUDY</text></g><g class="relationship" transform="translate(112.96296388319732 66.0031540505682) rotate(504.0437793824727)"><path class="outline" fill="#A5ABB6" stroke="none" d="M 23.889326612124187,-7.436401953852087 L 24.406964702329226,-5.50455030127395 A 159.75552760602486 159.75552760602486 0 0 1 30.57515838424265,-7.026528966946557 L 30.13474070417734,-8.977434466217574 A 161.75552760602486 161.75552760602486 0 0 0 23.889326612124187,-7.436401953852087 Z M 93.10033155004146,-10.619876692445814 L 92.76222138901531,-8.648663482513712 A 159.75552760602486 159.75552760602486 0 0 1 99.00137382285159,-7.450327442951305 L 98.37704545348828,-4.516010812591154 L 107.03432762693309,-6.763557334769193 L 100.04192110512378,-12.340855160218222 L 99.41759273576046,-9.406538529858071 A 161.75552760602486 161.75552760602486 0 0 0 93.10033155004146,-10.619876692445814"/><text text-anchor="middle" pointer-events="none" font-size="8px" fill="#000000" x="61.56289455748966" y="-8.893425587622005" transform="rotate(180 61.56289455748966 -11.893425587622005)" font-family="sans-serif">ABOUT_USER1</text></g><g class="relationship" transform="translate(112.96296388319732 66.0031540505682) rotate(435.68157221846513)"><path class="outline" fill="#A5ABB6" stroke="none" d="M 23.889326612124187,-7.436401953852087 L 24.406964702329226,-5.50455030127395 A 157.20196862971935 157.20196862971935 0 0 1 29.958873300501594,-6.884413202965135 L 29.51186929518196,-8.833820143351943 A 159.20196862971935 159.20196862971935 0 0 0 23.889326612124187,-7.436401953852087 Z M 92.47024262050664,-10.489586585725789 L 92.1263220679553,-8.51937881659768 A 157.20196862971935 157.20196862971935 0 0 1 97.74308485854775,-7.4332450936427605 L 97.12001524246409,-4.498660923182938 L 105.7763325184685,-6.749920840906281 L 98.78153421868717,-12.324218711075797 L 98.15846460260352,-9.389634540615976 A 159.20196862971935 159.20196862971935 0 0 0 92.47024262050664,-10.489586585725789"/><text text-anchor="middle" pointer-events="none" font-size="8px" fill="#000000" x="60.93465188729404" y="-8.806395055282309" font-family="sans-serif">ABOUT_USER1</text></g><g class="relationship" transform="translate(112.96296388319732 66.0031540505682) rotate(181.14443695474404)"><path class="outline" fill="#A5ABB6" stroke="none" d="M 23.889326612124187,-7.436401953852087 L 24.406964702329226,-5.50455030127395 A 163.4359177833278 163.4359177833278 0 0 1 31.465207017059008,-7.228599319811877 L 31.033942135515325,-9.181548525999062 A 165.4359177833278 165.4359177833278 0 0 0 23.889326612124187,-7.436401953852087 Z M 94.00919614231432,-10.80512513917958 L 93.67913597606181,-8.83254807182496 A 163.4359177833278 163.4359177833278 0 0 1 100.8168387298509,-7.47448732564484 L 100.19073010610381,-4.540550040822695 L 108.84937436395897,-6.782843423926678 L 101.8603531027627,-12.364382800348416 L 101.23424447901562,-9.43044551552627 A 165.4359177833278 165.4359177833278 0 0 0 94.00919614231432,-10.80512513917958"/><text text-anchor="middle" pointer-events="none" font-size="8px" fill="#000000" x="62.46934840233686" y="-9.018873615837862" transform="rotate(180 62.46934840233686 -12.018873615837862)" font-family="sans-serif">ABOUT_USER1</text></g><g class="relationship" transform="translate(112.96296388319732 66.0031540505682) rotate(218.20283416522176)"><path class="outline" fill="#A5ABB6" stroke="none" d="M 23.889326612124187,-7.436401953852087 L 24.406964702329226,-5.50455030127395 A 181.76646813659366 181.76646813659366 0 0 1 35.926426845915344,-8.192702106840699 L 35.53553889022829,-10.154131842033564 A 183.76646813659366 183.76646813659366 0 0 0 23.889326612124187,-7.436401953852087 Z M 98.54839915690533,-11.689368801619167 L 98.25349431365979,-9.711230501744694 A 181.76646813659366 181.76646813659366 0 0 1 109.89019854983675,-7.587252458772976 L 109.25578103828808,-4.655100617370423 L 117.92074263075979,-6.872856375110685 L 110.94756106908456,-12.474172194443899 L 110.31314355753588,-9.542020353041345 A 183.76646813659366 183.76646813659366 0 0 0 98.54839915690533,-11.689368801619167"/><text text-anchor="middle" pointer-events="none" font-size="8px" fill="#000000" x="67.00001148598089" y="-9.643871741928791" transform="rotate(180 67.00001148598089 -12.643871741928791)" font-family="sans-serif">ABOUT_USER1</text></g><g class="relationship" transform="translate(112.96296388319732 66.0031540505682) rotate(319.5505311643909)"><path class="outline" fill="#A5ABB6" stroke="none" d="M 23.889326612124187,-7.436401953852087 L 24.406964702329226,-5.50455030127395 A 145.28697052432975 145.28697052432975 0 0 1 27.098259930003294,-6.198160514406226 L 26.61766983134163,-8.139560307614289 A 147.28697052432975 147.28697052432975 0 0 0 23.889326612124187,-7.436401953852087 Z M 89.53576133537172,-9.860145273396938 L 89.16199084422632,-7.895381771102336 A 145.28697052432975 145.28697052432975 0 0 1 91.88717100657226,-7.349892804193858 L 91.27024359967251,-4.414011237335965 L 99.92183098715988,-6.683380241413849 L 92.91538335140515,-12.243028748957014 L 92.2984559445054,-9.30714718209912 A 147.28697052432975 147.28697052432975 0 0 0 89.53576133537172,-9.860145273396938"/><text text-anchor="middle" pointer-events="none" font-size="8px" fill="#000000" x="58.011068764617754" y="-8.400415756301953" font-family="sans-serif">ABOUT_USER1</text></g><g class="relationship" transform="translate(112.96296388319732 66.0031540505682) rotate(248.23674400113612)"><path class="outline" fill="#A5ABB6" stroke="none" d="M 23.889326612124187,-7.436401953852087 L 24.406964702329226,-5.50455030127395 A 138.18021657359765 138.18021657359765 0 0 1 25.405316180963027,-5.768063878539664 L 24.902128082274707,-7.703729587627464 A 140.18021657359765 140.18021657359765 0 0 0 23.889326612124187,-7.436401953852087 Z M 87.78979417289715,-9.465149261401308 L 87.3957420243127,-7.504352764006427 A 138.18021657359765 138.18021657359765 0 0 1 88.40727823505863,-7.297134100166952 L 87.79423877411557,-4.360438232473697 L 96.442813702555,-6.6412608268832 L 89.42901066996373,-12.191627212989044 L 88.81597120902067,-9.25493134529579 A 140.18021657359765 140.18021657359765 0 0 0 87.78979417289715,-9.465149261401308"/><text text-anchor="middle" pointer-events="none" font-size="8px" fill="#000000" x="56.273868073322475" y="-8.158365440828078" transform="rotate(180 56.273868073322475 -11.158365440828078)" font-family="sans-serif">ABOUT_USER1</text></g><g class="relationship" transform="translate(112.96296388319732 66.0031540505682) rotate(351.93675640092226)"><path class="outline" fill="#A5ABB6" stroke="none" d="M 23.889326612124187,-7.436401953852087 L 24.406964702329226,-5.50455030127395 A 154.8294678352983 154.8294678352983 0 0 1 29.387249711773244,-6.750896127623179 L 28.933944142748757,-8.698847374726512 A 156.8294678352983 156.8294678352983 0 0 0 23.889326612124187,-7.436401953852087 Z M 91.88520409894963,-10.367168995738098 L 91.53571079573268,-8.397942134503836 A 154.8294678352983 154.8294678352983 0 0 1 96.57501940280342,-7.4171335615123954 L 95.95313701574221,-4.482297570070447 L 104.6085428423357,-6.7370591931631445 L 97.61149004790545,-12.30852688058231 L 96.98960766084424,-9.373690889140361 A 156.8294678352983 156.8294678352983 0 0 0 91.88520409894963,-10.367168995738098"/><text text-anchor="middle" pointer-events="none" font-size="8px" fill="#000000" x="60.35146802454919" y="-8.725542242905874" font-family="sans-serif">ABOUT_USER1</text></g><g class="relationship" transform="translate(112.96296388319732 66.0031540505682) rotate(435.68157221846513)"><path class="outline" fill="#A5ABB6" stroke="none" d="M 23.889326612124187,7.436401953852087 L 24.406964702329226,5.50455030127395 A 157.20196862971935 157.20196862971935 0 0 0 31.898714005748026,7.316335634626938 L 31.476389598555002,9.271237702529334 A 159.20196862971935 159.20196862971935 0 0 1 23.889326612124187,7.436401953852087 Z M 90.4854462672284,10.823139549218666 L 90.16646003389889,8.848741468043983 A 157.20196862971935 157.20196862971935 0 0 0 97.74308485854775,7.4332450936427605 L 97.12001524246409,4.498660923182938 L 105.7763325184685,6.749920840906281 L 98.78153421868717,12.324218711075797 L 98.15846460260352,9.389634540615976 A 159.20196862971935 159.20196862971935 0 0 1 90.4854462672284,10.823139549218666"/><text text-anchor="middle" pointer-events="none" font-size="8px" fill="#000000" x="60.93465188729406" y="14.806395055282337" font-family="sans-serif">ABOUT_USER</text></g><g class="relationship" transform="translate(112.96296388319732 66.0031540505682) rotate(504.0437793824727)"><path class="outline" fill="#A5ABB6" stroke="none" d="M 23.889326612124187,7.436401953852087 L 24.406964702329226,5.50455030127395 A 159.75552760602486 159.75552760602486 0 0 0 32.51660061130661,7.452135477359775 L 32.100488096216274,9.408369199281879 A 161.75552760602486 161.75552760602486 0 0 1 23.889326612124187,7.436401953852087 Z M 91.114791015267,10.947743034476161 L 90.80123074832065,8.972475974306178 A 159.75552760602486 159.75552760602486 0 0 0 99.00137382285159,7.450327442951305 L 98.37704545348828,4.516010812591154 L 107.03432762693309,6.763557334769193 L 100.04192110512378,12.340855160218222 L 99.41759273576046,9.406538529858071 A 161.75552760602486 161.75552760602486 0 0 1 91.114791015267,10.947743034476161"/><text text-anchor="middle" pointer-events="none" font-size="8px" fill="#000000" x="61.562894557489685" y="14.893425587622005" transform="rotate(180 61.562894557489685 11.893425587622005)" font-family="sans-serif">ABOUT_USER</text></g><g class="relationship" transform="translate(112.96296388319732 66.0031540505682) rotate(218.20283416522176)"><path class="outline" fill="#A5ABB6" stroke="none" d="M 23.889326612124187,7.436401953852087 L 24.406964702329226,5.50455030127395 A 181.76646813659366 181.76646813659366 0 0 0 37.879212764717984,8.570770509970401 L 37.509811565513814,10.53636018078842 A 183.76646813659366 183.76646813659366 0 0 1 23.889326612124187,7.436401953852087 Z M 96.55785486816654,11.974998866380417 L 96.28461387152939,9.993751946444206 A 181.76646813659366 181.76646813659366 0 0 0 109.89019854983675,7.587252458772976 L 109.25578103828808,4.655100617370423 L 117.92074263075979,6.872856375110685 L 110.94756106908456,12.474172194443899 L 110.31314355753588,9.542020353041345 A 183.76646813659366 183.76646813659366 0 0 1 96.55785486816654,11.974998866380417"/><text text-anchor="middle" pointer-events="none" font-size="8px" fill="#000000" x="67.00001148598092" y="15.643871741928791" transform="rotate(180 67.00001148598092 12.643871741928791)" font-family="sans-serif">ABOUT_USER</text></g><g class="relationship" transform="translate(112.96296388319732 66.0031540505682) rotate(181.14443695474404)"><path class="outline" fill="#A5ABB6" stroke="none" d="M 23.889326612124187,7.436401953852087 L 24.406964702329226,5.50455030127395 A 163.4359177833278 163.4359177833278 0 0 0 33.40883841795726,7.645426654204812 L 33.001358166221515,9.603476664915803 A 165.4359177833278 165.4359177833278 0 0 1 23.889326612124187,7.436401953852087 Z M 92.02265257376354,11.12511551800219 L 91.71660827534879,9.148669999550464 A 163.4359177833278 163.4359177833278 0 0 0 100.8168387298509,7.47448732564484 L 100.19073010610381,4.540550040822695 L 108.84937436395897,6.782843423926678 L 101.8603531027627,12.364382800348416 L 101.23424447901562,9.43044551552627 A 165.4359177833278 165.4359177833278 0 0 1 92.02265257376354,11.12511551800219"/><text text-anchor="middle" pointer-events="none" font-size="8px" fill="#000000" x="62.469348402336855" y="15.018873615837862" transform="rotate(180 62.469348402336855 12.018873615837862)" font-family="sans-serif">ABOUT_USER</text></g><g class="relationship" transform="translate(112.96296388319732 66.0031540505682) rotate(319.5505311643909)"><path class="outline" fill="#A5ABB6" stroke="none" d="M 23.889326612124187,7.436401953852087 L 24.406964702329226,5.50455030127395 A 145.28697052432975 145.28697052432975 0 0 0 29.029591230669077,6.662270239902881 L 28.575587567029018,8.61005890230993 A 147.28697052432975 147.28697052432975 0 0 1 23.889326612124187,7.436401953852087 Z M 87.55505609796592,10.222936604388309 L 87.20818147181598,8.253246782682027 A 145.28697052432975 145.28697052432975 0 0 0 91.88717100657226,7.349892804193858 L 91.27024359967251,4.414011237335965 L 99.92183098715988,6.683380241413849 L 92.91538335140515,12.243028748957014 L 92.2984559445054,9.30714718209912 A 147.28697052432975 147.28697052432975 0 0 1 87.55505609796592,10.222936604388309"/><text text-anchor="middle" pointer-events="none" font-size="8px" fill="#000000" x="58.01106876461782" y="14.400415756301953" font-family="sans-serif">ABOUT_USER</text></g><g class="relationship" transform="translate(112.96296388319732 66.0031540505682) rotate(278.1784662066506)"><path class="outline" fill="#A5ABB6" stroke="none" d="M 21.15063509461097,-13.366025403784437 L 22.15063509461097,-11.633974596215559 A 99.08471851919488 99.08471851919488 0 0 1 38.45390184299821,-19.167244023272957 L 37.782979161721755,-21.051351970219955 A 101.08471851919488 101.08471851919488 0 0 0 21.15063509461097,-13.366025403784437 Z M 96.44757640914742,-23.830881738288753 L 95.95779749068036,-21.891779726783113 A 99.08471851919488 99.08471851919488 0 0 1 112.90028487376561,-15.933694782465537 L 111.65264675755374,-13.205435423281498 L 120.59152253699366,-13.51607959229523 L 114.97968173411873,-20.48079371443893 L 113.73204361790685,-17.752534355254895 A 101.08471851919488 101.08471851919488 0 0 0 96.44757640914742,-23.830881738288753"/><text text-anchor="middle" pointer-events="none" font-size="8px" fill="#000000" x="66.95629207910238" y="-22.796660132553725" font-family="sans-serif">ABOUT_USER</text></g><g class="relationship" transform="translate(112.96296388319732 66.0031540505682) rotate(472.866459437532)"><path class="outline" fill="#A5ABB6" stroke="none" d="M 23.889326612124187,-7.436401953852087 L 24.406964702329226,-5.50455030127395 A 161.96040476305356 161.96040476305356 0 0 1 33.05089530553879,-7.5682695547959895 L 32.63999849714094,-9.52560545158235 A 163.96040476305356 163.96040476305356 0 0 0 23.889326612124187,-7.436401953852087 Z M 91.65856719147068,-11.054309416522301 L 91.34955154564375,-9.078326286373112 A 161.96040476305356 161.96040476305356 0 0 1 100.08872877084737,-7.4648657640972464 L 99.46332912185188,-4.530777272071772 L 108.12143129924712,-6.775162864117773 L 101.13106151917317,-12.35501325080637 L 100.50566187017769,-9.420924758780895 A 163.96040476305356 163.96040476305356 0 0 0 91.65856719147068,-11.054309416522301"/><text text-anchor="middle" pointer-events="none" font-size="8px" fill="#000000" x="62.10580306638268" y="-8.968578225927757" transform="rotate(180 62.10580306638268 -11.968578225927757)" font-family="sans-serif">ABOUT_USER</text></g><g class="relationship" transform="translate(112.96296388319732 66.0031540505682) rotate(472.866459437532)"><path class="outline" fill="#A5ABB6" stroke="none" d="M 23.889326612124187,7.436401953852087 L 24.406964702329226,5.50455030127395 A 161.96040476305356 161.96040476305356 0 0 0 31.108125304945105,7.14796719221178 L 30.673237818042395,9.10011290238188 A 163.96040476305356 163.96040476305356 0 0 1 23.889326612124187,7.436401953852087 Z M 93.64471807917363,10.731205517519726 L 93.31147523177845,8.759163630373337 A 161.96040476305356 161.96040476305356 0 0 0 100.08872877084737,7.4648657640972464 L 99.46332912185188,4.530777272071772 L 108.12143129924712,6.775162864117773 L 101.13106151917317,12.35501325080637 L 100.50566187017769,9.420924758780895 A 163.96040476305356 163.96040476305356 0 0 1 93.64471807917363,10.731205517519726"/><text text-anchor="middle" pointer-events="none" font-size="8px" fill="#000000" x="62.10580306638275" y="14.968578225927786" transform="rotate(180 62.10580306638275 11.968578225927786)" font-family="sans-serif">ABOUT_USER1</text></g><g class="relationship" transform="translate(112.96296388319732 66.0031540505682) rotate(278.1784662066506)"><path class="outline" fill="#A5ABB6" stroke="none" d="M 25 1 L 35.82383279741035 1 L 35.82383279741035 -1 L 25 -1 Z M 98.82383279741035 1 L 109.6476655948207 1 L 109.6476655948207 4 L 117.6476655948207 0 L 109.6476655948207 -4 L 109.6476655948207 -1 L 98.82383279741035 -1 Z"/><text text-anchor="middle" pointer-events="none" font-size="8px" fill="#000000" x="67.32383279741035" y="3" font-family="sans-serif">ABOUT_USER1</text></g><g class="relationship" transform="translate(112.96296388319732 66.0031540505682) rotate(278.1784662066506)"><path class="outline" fill="#A5ABB6" stroke="none" d="M 21.15063509461097,13.366025403784437 L 22.15063509461097,11.633974596215559 A 99.08471851919488 99.08471851919488 0 0 0 36.595379514517795,18.48443267616247 L 35.88694302977588,20.354758248646178 A 101.08471851919488 101.08471851919488 0 0 1 21.15063509461097,13.366025403784437 Z M 98.40098031142543,23.31667456102879 L 97.87255254611202,21.387746336121012 A 99.08471851919488 99.08471851919488 0 0 0 112.90028487376561,15.933694782465537 L 111.65264675755374,13.205435423281498 L 120.59152253699366,13.51607959229523 L 114.97968173411873,20.48079371443893 L 113.73204361790685,17.752534355254895 A 101.08471851919488 101.08471851919488 0 0 1 98.40098031142543,23.31667456102879"/><text text-anchor="middle" pointer-events="none" font-size="8px" fill="#000000" x="66.95629207910243" y="28.796660132553725" font-family="sans-serif">ABOUT_USER1</text></g><g class="relationship" transform="translate(112.96296388319732 66.0031540505682) rotate(351.93675640092226)"><path class="outline" fill="#A5ABB6" stroke="none" d="M 23.889326612124187,7.436401953852087 L 24.406964702329226,5.50455030127395 A 154.8294678352983 154.8294678352983 0 0 0 31.32553756846162,7.18886020436409 L 30.897269712009397,9.142468825129754 A 156.8294678352983 156.8294678352983 0 0 1 23.889326612124187,7.436401953852087 Z M 89.9011374294368,10.706177451530237 L 89.57694634393314,8.732627315334042 A 154.8294678352983 154.8294678352983 0 0 0 96.57501940280342,7.4171335615123954 L 95.95313701574221,4.482297570070447 L 104.6085428423357,6.7370591931631445 L 97.61149004790545,12.30852688058231 L 96.98960766084424,9.373690889140361 A 156.8294678352983 156.8294678352983 0 0 1 89.9011374294368,10.706177451530237"/><text text-anchor="middle" pointer-events="none" font-size="8px" fill="#000000" x="60.35146802454922" y="14.725542242905874" font-family="sans-serif">ABOUT_USER</text></g><g class="relationship" transform="translate(112.96296388319732 66.0031540505682) rotate(248.23674400113612)"><path class="outline" fill="#A5ABB6" stroke="none" d="M 23.889326612124187,7.436401953852087 L 24.406964702329226,5.50455030127395 A 138.18021657359765 138.18021657359765 0 0 0 27.330597464384816,6.253811955343508 L 26.85527560199519,8.196508310190154 A 140.18021657359765 140.18021657359765 0 0 1 23.889326612124187,7.436401953852087 Z M 85.81212592745914,9.847829825562712 L 85.44628986091219,7.881573491202062 A 138.18021657359765 138.18021657359765 0 0 0 88.40727823505863,7.297134100166952 L 87.79423877411557,4.360438232473697 L 96.442813702555,6.6412608268832 L 89.42901066996373,12.191627212989044 L 88.81597120902067,9.25493134529579 A 140.18021657359765 140.18021657359765 0 0 1 85.81212592745914,9.847829825562712"/><text text-anchor="middle" pointer-events="none" font-size="8px" fill="#000000" x="56.27386807332247" y="14.158365440828078" transform="rotate(180 56.27386807332247 11.158365440828078)" font-family="sans-serif">ABOUT_USER</text></g><g class="relationship" transform="translate(146.9849129378245 199.29744629250914) rotate(418.5889756753017)"><path class="outline" fill="#A5ABB6" stroke="none" d="M 31.26317983184346,8.894581878976458 L 31.52199887694598,7.92865605268739 A 123.09501772401859 123.09501772401859 0 0 0 44.42802199711531,10.655115398577067 L 44.274048975505835,11.643190450694291 A 124.09501772401859 124.09501772401859 0 0 1 31.26317983184346,8.894581878976458 Z M 76.3037196866956,12.448359770667295 L 76.1995866916524,11.453796389407287 A 123.09501772401859 123.09501772401859 0 0 0 89.2262988586655,9.37924018122069 L 88.59642043997623,6.446109911752678 L 96.17524922387241,8.398378915857043 L 90.0661367502512,13.290080540511372 L 89.43625833156193,10.356950271043361 A 124.09501772401859 124.09501772401859 0 0 1 76.3037196866956,12.448359770667295"/><text text-anchor="middle" pointer-events="none" font-size="8px" fill="#000000" x="60.27535471519671" y="15.58398382219579" font-family="sans-serif">LEARN</text></g><g class="relationship" transform="translate(217.49121573476376 314.7553519783355) rotate(238.5889756753017)"><path class="outline" fill="#A5ABB6" stroke="none" d="M 38.50762352901147,10.835724717245364 L 38.766442574113995,9.869798890956295 A 112.13354627852247 112.13354627852247 0 0 0 51.5271800983697,12.505269037156424 L 51.38216051781421,13.494697822494459 A 113.13354627852247 113.13354627852247 0 0 1 38.50762352901147,10.835724717245364 Z M 84.41021053114133,13.462990683709918 L 84.26329150374391,12.473842161298549 A 112.13354627852247 112.13354627852247 0 0 0 97.01894537546282,9.813876116522962 L 96.23692590672206,6.9175947851412145 L 103.90727172681036,8.471877578024825 L 98.0616380004505,13.67558455836529 L 97.27961853170974,10.779303226983544 A 113.13354627852247 113.13354627852247 0 0 1 84.41021053114133,13.462990683709918"/><text text-anchor="middle" pointer-events="none" font-size="8px" fill="#000000" x="67.8968688192635" y="17.190604923481175" transform="rotate(180 67.8968688192635 14.190604923481175)" font-family="sans-serif">STUDY</text></g><g class="relationship" transform="translate(248.01706605626381 46.87049574734646) rotate(277.7634563427452)"><path class="outline" fill="#A5ABB6" stroke="none" d="M 31.26317983184346,8.894581878976458 L 31.52199887694598,7.92865605268739 A 162.76880763474216 162.76880763474216 0 0 0 54.12661499311504,12.29979609828618 L 54.006671549822514,13.292576824535018 A 163.76880763474216 163.76880763474216 0 0 1 31.26317983184346,8.894581878976458 Z M 86.04539658103455,14.005075809728197 L 85.96970615793985,13.007944444334584 A 162.76880763474216 162.76880763474216 0 0 0 108.74629537171207,9.646022546865195 L 108.09942765227117,6.716592200612645 L 115.68944413287483,8.624902925878542 L 109.60878566429992,13.55192967520193 L 108.96191794485902,10.62249932894938 A 163.76880763474216 163.76880763474216 0 0 1 86.04539658103455,14.005075809728197"/><text text-anchor="middle" pointer-events="none" font-size="8px" fill="#000000" x="70.0196808232619" y="16.93451062414627" font-family="sans-serif">LEARN</text></g><g class="relationship" transform="translate(268.92105862166216 -106.45962561945058) rotate(457.7634563427452)"><path class="outline" fill="#A5ABB6" stroke="none" d="M 38.50762352901147,10.835724717245364 L 38.766442574113995,9.869798890956295 A 149.66537453675147 149.66537453675147 0 0 0 61.21550168739397,14.080664516970472 L 61.10667765070782,15.074725545800874 A 150.66537453675147 150.66537453675147 0 0 1 38.50762352901147,10.835724717245364 Z M 94.14996048951738,15.047006360368243 L 94.03946882118234,14.05312931001015 A 149.66537453675147 149.66537453675147 0 0 0 116.48143156394411,9.804605725942682 L 115.70011377842495,6.908135025584843 L 123.37008282903226,8.46427600979094 L 117.52318861130298,13.666566659753133 L 116.74187082578382,10.770095959395295 A 150.66537453675147 150.66537453675147 0 0 1 94.14996048951738,15.047006360368243"/><text text-anchor="middle" pointer-events="none" font-size="8px" fill="#000000" x="77.62866183787243" y="18.469470024922344" transform="rotate(180 77.62866183787243 15.469470024922344)" font-family="sans-serif">STUDY</text></g><g class="relationship" transform="translate(134.3225099128883 -82.61747465547522) rotate(349.95509082867693)"><path class="outline" fill="#A5ABB6" stroke="none" d="M 31.26317983184346,8.894581878976458 L 31.52199887694598,7.92865605268739 A 125.98919806797767 125.98919806797767 0 0 0 45.129564804246485,10.780603936163558 L 44.97875157341987,11.769166210078382 A 126.98919806797767 126.98919806797767 0 0 1 31.26317983184346,8.894581878976458 Z M 77.00970926517996,12.56683290802107 L 76.90828877708338,11.57198925970529 A 125.98919806797767 125.98919806797767 0 0 0 90.64094349286006,9.400894684808124 L 90.00968602590426,6.468060899812364 L 97.5894319023428,8.416766226077236 L 91.48262011546778,13.311339731469136 L 90.85136264851198,10.378505946473377 A 126.98919806797767 126.98919806797767 0 0 1 77.00970926517996,12.56683290802107"/><text text-anchor="middle" pointer-events="none" font-size="8px" fill="#000000" x="60.98141955201303" y="15.682430397292578" font-family="sans-serif">LEARN</text></g><g class="relationship" transform="translate(268.92105862166216 -106.45962561945058) rotate(529.9550908286769)"><path class="outline" fill="#A5ABB6" stroke="none" d="M 38.50762352901147,10.835724717245364 L 38.766442574113995,9.869798890956295 A 114.85204449860807 114.85204449860807 0 0 0 52.22783468503289,12.625825113527554 L 52.08622201766343,13.615747258163438 A 115.85204449860807 115.85204449860807 0 0 1 38.50762352901147,10.835724717245364 Z M 85.11634225168262,13.584366425361111 L 84.97284885660001,12.59471515063467 A 114.85204449860807 114.85204449860807 0 0 0 98.42897985096039,9.813115473106683 L 97.64701795583694,6.9168185969948865 L 105.31733287774182,8.471253863837287 L 99.47159571112498,13.674844641255746 L 98.68963381600153,10.77854776514395 A 115.85204449860807 115.85204449860807 0 0 1 85.11634225168262,13.584366425361111"/><text text-anchor="middle" pointer-events="none" font-size="8px" fill="#000000" x="68.60193120014036" y="17.283235346321803" transform="rotate(180 68.60193120014036 14.283235346321803)" font-family="sans-serif">STUDY</text></g><g class="relationship" transform="translate(213.20453429373958 -19.458455080732328) rotate(354.67717998275964)"><path class="outline" fill="#A5ABB6" stroke="none" d="M 31.26317983184346,8.894581878976458 L 31.52199887694598,7.92865605268739 A 152.27178315678546 152.27178315678546 0 0 0 51.54511144034792,11.87789487998873 L 51.41778827812203,12.869756166843302 A 153.27178315678546 153.27178315678546 0 0 1 31.26317983184346,8.894581878976458 Z M 83.45543042792521,13.604774904383532 L 83.37372854007367,12.608118092074761 A 152.27178315678546 152.27178315678546 0 0 0 103.55688810204288,9.581305554467493 L 102.91414160556016,6.6509682118976645 L 110.50146631745292,8.56995328643614 L 104.4138834306865,13.488422011227263 L 103.77113693420378,10.558084668657434 A 153.27178315678546 153.27178315678546 0 0 1 83.45543042792521,13.604774904383532"/><text text-anchor="middle" pointer-events="none" font-size="8px" fill="#000000" x="67.42881501704719" y="16.577001292070662" font-family="sans-serif">LEARN</text></g><g class="relationship" transform="translate(362.1321824836146 -33.333883524871815) rotate(534.6771799827596)"><path class="outline" fill="#A5ABB6" stroke="none" d="M 38.50762352901147,10.835724717245364 L 38.766442574113995,9.869798890956295 A 139.6835052927473 139.6835052927473 0 0 0 58.63639392214701,13.677116032558871 L 58.51982468174684,14.670298599961512 A 140.6835052927473 140.6835052927473 0 0 1 38.50762352901147,10.835724717245364 Z M 91.56109947279091,14.641618841978556 L 91.4428062485241,13.648640134708046 A 139.6835052927473 139.6835052927473 0 0 0 111.30611817394275,9.806834603000633 L 110.52463168273978,6.910409415969685 L 118.19469135888212,8.466103654698854 L 112.34810016221338,13.66873485237523 L 111.56661367101042,10.772309665344283 A 140.6835052927473 140.6835052927473 0 0 1 91.56109947279091,14.641618841978556"/><text text-anchor="middle" pointer-events="none" font-size="8px" fill="#000000" x="75.04087297653744" y="18.12934610632678" transform="rotate(180 75.04087297653744 15.129346106326778)" font-family="sans-serif">STUDY</text></g><g class="relationship" transform="translate(65.40881170648463 -53.112191380142406) rotate(247.15497807937322)"><path class="outline" fill="#A5ABB6" stroke="none" d="M 31.26317983184346,8.894581878976458 L 31.52199887694598,7.92865605268739 A 102.0976246397333 102.0976246397333 0 0 0 39.37512957300851,9.704234681488145 L 39.19322838690392,10.687551496402719 A 103.0976246397333 103.0976246397333 0 0 1 31.26317983184346,8.894581878976458 Z M 71.20734929440641,11.55119838078646 L 71.07872808953087,10.559504584468087 A 102.0976246397333 102.0976246397333 0 0 0 79.01616679732963,9.209909105655827 L 78.39707232931713,6.2744837464146315 L 85.96867504689452,8.254592906833498 L 79.84162608801299,13.12380958464409 L 79.22253162000048,10.188384225402894 A 103.0976246397333 103.0976246397333 0 0 1 71.20734929440641,11.55119838078646"/><text text-anchor="middle" pointer-events="none" font-size="8px" fill="#000000" x="55.18003283510808" y="14.870235298787094" transform="rotate(180 55.18003283510808 11.870235298787094)" font-family="sans-serif">LEARN</text></g><g class="relationship" transform="translate(16.837024970324034 -168.40622022551872) rotate(427.1549780793732)"><path class="outline" fill="#A5ABB6" stroke="none" d="M 38.50762352901147,10.835724717245364 L 38.766442574113995,9.869798890956295 A 92.52124581452445 92.52124581452445 0 0 0 46.48189085993059,11.587589662207876 L 46.306462912925504,12.572081935112848 A 93.52124581452445 93.52124581452445 0 0 1 38.50762352901147,10.835724717245364 Z M 79.31011941407345,12.537811145692487 L 79.1326472664134,11.553685322027178 A 92.52124581452445 92.52124581452445 0 0 0 86.84451143127824,9.81987492651668 L 86.06203790907351,6.923716231443407 L 93.73262730681665,8.476796490551198 L 87.88780946088453,13.681419853281046 L 87.1053359386798,10.785261158207772 A 93.52124581452445 93.52124581452445 0 0 1 79.31011941407345,12.537811145692487"/><text text-anchor="middle" pointer-events="none" font-size="8px" fill="#000000" x="62.80929569228799" y="16.522333742218578" font-family="sans-serif">STUDY</text></g><g class="relationship" transform="translate(-4.664012692334525 -26.56957101913196) rotate(278.6198483002655)"><path class="outline" fill="#A5ABB6" stroke="none" d="M 31.26317983184346,8.894581878976458 L 31.52199887694598,7.92865605268739 A 139.8227140193723 139.8227140193723 0 0 0 48.49696264076799,11.366569077428181 L 48.35954707351149,12.357082561372522 A 140.8227140193723 140.8227140193723 0 0 1 31.26317983184346,8.894581878976458 Z M 80.39493103546559,13.120594218753496 L 80.30485926742229,12.124658941437986 A 139.8227140193723 139.8227140193723 0 0 0 97.42433057343649,9.49933173301063 L 96.7868043193065,6.567854242854008 L 104.37069909282361,8.500350055066725 L 98.27436557894316,13.407968386552792 L 97.63683932481317,10.47649089639617 A 140.8227140193723 140.8227140193723 0 0 1 80.39493103546559,13.120594218753496"/><text text-anchor="middle" pointer-events="none" font-size="8px" fill="#000000" x="64.36736430358069" y="16.153162695139372" font-family="sans-serif">LEARN</text></g><g class="relationship" transform="translate(134.3225099128883 -82.61747465547522) rotate(216.13718751635326)"><path class="outline" fill="#A5ABB6" stroke="none" d="M 31.26317983184346,8.894581878976458 L 31.52199887694598,7.92865605268739 A 143.9334006594317 143.9334006594317 0 0 0 49.50173511467872,11.536886946158205 L 49.36783312256986,12.527881525613253 A 144.9334006594317 144.9334006594317 0 0 1 31.26317983184346,8.894581878976458 Z M 81.40410655354063,13.281760241419818 L 81.31696720331426,12.285564109304204 A 143.9334006594317 143.9334006594317 0 0 0 99.44652571093947,9.52705841280326 L 98.80723375973625,6.595965476520485 L 106.39229122079982,8.523892682709551 L 100.29891497921042,13.435182327846961 L 99.6596230280072,10.504089391564186 A 144.9334006594317 144.9334006594317 0 0 1 81.40410655354063,13.281760241419818"/><text text-anchor="middle" pointer-events="none" font-size="8px" fill="#000000" x="65.37683298444416" y="16.293093870199954" transform="rotate(180 65.37683298444416 13.293093870199954)" font-family="sans-serif">LEARN</text></g><g class="relationship" transform="translate(16.837024970324034 -168.40622022551872) rotate(396.13718751635326)"><path class="outline" fill="#A5ABB6" stroke="none" d="M 38.50762352901147,10.835724717245364 L 38.766442574113995,9.869798890956295 A 131.77911768745412 131.77911768745412 0 0 0 56.59505928782093,13.350788885949783 L 56.4715319112815,14.343130050693674 A 132.77911768745412 132.77911768745412 0 0 1 38.50762352901147,10.835724717245364 Z M 89.51042311435268,14.313641600436739 L 89.38512453257508,13.321522522198393 A 131.77911768745412 131.77911768745412 0 0 0 107.20749901746898,9.808712679677077 L 106.42587037307783,6.912325850838903 L 114.09600639215658,8.467643647570762 L 108.24967054332384,13.670561784794643 L 107.4680418989327,10.77417495595647 A 132.77911768745412 132.77911768745412 0 0 1 89.51042311435268,14.313641600436739"/><text text-anchor="middle" pointer-events="none" font-size="8px" fill="#000000" x="72.99145200801276" y="17.860010750233897" font-family="sans-serif">STUDY</text></g><g class="relationship" transform="translate(16.837024970324034 -168.40622022551872) rotate(458.6198483002655)"><path class="outline" fill="#A5ABB6" stroke="none" d="M 38.50762352901147,10.835724717245364 L 38.766442574113995,9.869798890956295 A 127.8910267997523 127.8910267997523 0 0 0 55.59134646744572,13.187707519832216 L 55.46408398510093,14.179576594149708 A 128.8910267997523 128.8910267997523 0 0 1 38.50762352901147,10.835724717245364 Z M 88.50146895441019,14.149673610783978 L 88.37241114984597,13.158036538523632 A 127.8910267997523 127.8910267997523 0 0 0 105.19128123226392,9.809676068060005 L 104.40957966824016,6.913308918542735 L 112.07975484180817,8.468433610257437 L 106.23354998429559,13.671498934083033 L 105.45184842027183,10.775131784565763 A 128.8910267997523 128.8910267997523 0 0 1 88.50146895441019,14.149673610783978"/><text text-anchor="middle" pointer-events="none" font-size="8px" fill="#000000" x="71.98328596700892" y="17.7275273619058" transform="rotate(180 71.98328596700892 14.7275273619058)" font-family="sans-serif">STUDY</text></g><g class="relationship" transform="translate(-27.642677800068487 63.19429627646572) rotate(184.19670727138077)"><path class="outline" fill="#A5ABB6" stroke="none" d="M 31.26317983184346,8.894581878976458 L 31.52199887694598,7.92865605268739 A 145.49923311728475 145.49923311728475 0 0 0 49.88493024671456,11.601363911428137 L 49.75231758068598,12.592531849170655 A 146.49923311728475 146.49923311728475 0 0 1 31.26317983184346,8.894581878976458 Z M 81.78888959253038,13.342800439089046 L 81.70282144139593,12.346511187234796 A 145.49923311728475 145.49923311728475 0 0 0 100.21755028604757,9.537445984091976 L 99.57759683408295,6.606497403970077 L 107.16308921499277,8.532712692861523 L 101.07082155533371,13.445377424254506 L 100.4308681033691,10.514428844132608 A 146.49923311728475 146.49923311728475 0 0 1 81.78888959253038,13.342800439089046"/><text text-anchor="middle" pointer-events="none" font-size="8px" fill="#000000" x="65.76173393210246" y="16.34640161181582" transform="rotate(180 65.76173393210246 13.346401611815821)" font-family="sans-serif">LEARN</text></g><g class="relationship" transform="translate(-173.4929593931504 52.492148137679195) rotate(364.1967072713808)"><path class="outline" fill="#A5ABB6" stroke="none" d="M 38.50762352901147,10.835724717245364 L 38.766442574113995,9.869798890956295 A 133.261691447231 133.261691447231 0 0 0 56.97786048162013,13.412507151100158 L 56.855700499671684,14.405017573619915 A 134.261691447231 134.261691447231 0 0 1 38.50762352901147,10.835724717245364 Z M 89.89510349084992,14.37568421897862 L 89.77118134292914,13.383392275418316 A 133.261691447231 133.261691447231 0 0 0 107.97627990406144,9.808352359867174 L 107.19467853256955,6.9119581712108715 L 114.8647999061748,8.467348191162143 L 109.01841506605064,13.670211278075575 L 108.23681369455875,10.773817089419273 A 134.261691447231 134.261691447231 0 0 1 89.89510349084992,14.37568421897862"/><text text-anchor="middle" pointer-events="none" font-size="8px" fill="#000000" x="73.37586382398139" y="17.910528196140632" font-family="sans-serif">STUDY</text></g><g class="relationship" transform="translate(58.59710283068651 194.91564730951447) rotate(520.1781462375773)"><path class="outline" fill="#A5ABB6" stroke="none" d="M 31.26317983184346,8.894581878976458 L 31.52199887694598,7.92865605268739 A 166.89466921316216 166.89466921316216 0 0 0 55.14384043054429,12.463663267766378 L 55.02655880940483,13.456761964444041 A 167.89466921316216 167.89466921316216 0 0 1 31.26317983184346,8.894581878976458 Z M 87.06555904722185,14.160761579736914 L 86.99201269039175,13.163469780213319 A 166.89466921316216 166.89466921316216 0 0 0 110.79025610330883,9.670433953935014 L 110.14183386529527,6.741347304269376 L 117.73286199219758,8.64562984018095 L 111.65481908732693,13.575882820155865 L 111.00639684931336,10.646796170490227 A 167.89466921316216 167.89466921316216 0 0 1 87.06555904722185,14.160761579736914"/><text text-anchor="middle" pointer-events="none" font-size="8px" fill="#000000" x="71.04020755191573" y="17.075057726977775" transform="rotate(180 71.04020755191573 14.075057726977775)" font-family="sans-serif">LEARN</text></g><g class="relationship" transform="translate(-88.90083233154353 248.08173093532102) rotate(340.17814623757727)"><path class="outline" fill="#A5ABB6" stroke="none" d="M 38.50762352901147,10.835724717245364 L 38.766442574113995,9.869798890956295 A 153.59764885216597 153.59764885216597 0 0 0 62.231831237376156,14.237388822076838 L 62.12578398818731,15.231749913903883 A 154.59764885216597 154.59764885216597 0 0 1 38.50762352901147,10.835724717245364 Z M 95.16962151571025,15.20439183842376 L 95.06192788479605,14.210207709672716 A 153.59764885216597 153.59764885216597 0 0 0 118.520052241734,9.803768265086015 L 117.73879784440514,6.907280466621415 L 125.40873283770622,8.463589304396084 L 119.56172477150584,13.665751996372148 L 118.78047037417697,10.769264197907548 A 154.59764885216597 154.59764885216597 0 0 1 95.16962151571025,15.20439183842376"/><text text-anchor="middle" pointer-events="none" font-size="8px" fill="#000000" x="78.64802182743736" y="18.603459044701054" font-family="sans-serif">STUDY</text></g><g class="relationship" transform="translate(0.5906778682180618 147.5152845340595) rotate(456.974063594074)"><path class="outline" fill="#A5ABB6" stroke="none" d="M 31.26317983184346,8.894581878976458 L 31.52199887694598,7.92865605268739 A 169.01205138336468 169.01205138336468 0 0 0 55.66640755129747,12.547369780361237 L 55.55044464264634,13.540623324939446 A 170.01205138336468 170.01205138336468 0 0 1 31.26317983184346,8.894581878976458 Z M 87.58955884319788,14.240335018366778 L 87.51706973365468,13.242965814411889 A 169.01205138336468 169.01205138336468 0 0 0 111.84010053901545,9.68274683606709 L 111.19089422006638,6.753833871256324 L 118.78243184339875,8.656084252654368 L 112.70570896428089,13.587964122481443 L 112.05650264533182,10.659051157670678 A 170.01205138336468 170.01205138336468 0 0 1 87.58955884319788,14.240335018366778"/><text text-anchor="middle" pointer-events="none" font-size="8px" fill="#000000" x="71.56439532187969" y="17.14719170871868" transform="rotate(180 71.56439532187969 14.14719170871868)" font-family="sans-serif">LEARN</text></g><g class="relationship" transform="translate(-18.573604480503434 304.1821052883105) rotate(276.974063594074)"><path class="outline" fill="#A5ABB6" stroke="none" d="M 38.50762352901147,10.835724717245364 L 38.766442574113995,9.869798890956295 A 155.61753857721453 155.61753857721453 0 0 0 62.75394765656198,14.317449069256185 L 62.64927258071744,15.311955544095326 A 156.61753857721453 156.61753857721453 0 0 1 38.50762352901147,10.835724717245364 Z M 95.6933520523078,15.284779351341314 L 95.587041310269,14.290446395975152 A 155.61753857721453 155.61753857721453 0 0 0 119.56719825371171,9.8033465356136 L 118.78597577748552,6.9068501274268 L 126.45589361885193,8.463243492450308 L 120.60882822201329,13.665341746529332 L 119.8276057457871,10.768845338342533 A 156.61753857721453 156.61753857721453 0 0 1 95.6933520523078,15.284779351341314"/><text text-anchor="middle" pointer-events="none" font-size="8px" fill="#000000" x="79.17161983481313" y="18.672285135643023" font-family="sans-serif">STUDY</text></g></g><g class="layer nodes"><g class="node" transform="translate(219.07774538111235,169.34618022683134)"><circle class="outline" cx="0" cy="0" r="32.5" fill="#FFD86E" stroke="#EDBA39" stroke-width="2px"/><text text-anchor="middle" pointer-events="none" y="5" font-size="10px" fill="#604A0E" font-family="sans-serif"> User №3</text></g><g class="node" transform="translate(340.6601325125918,244.91150117311997)"><circle class="outline" cx="0" cy="0" r="40" fill="#FF756E" stroke="#E06760" stroke-width="2px"/><text text-anchor="middle" pointer-events="none" y="-5" font-size="10px" fill="#FFFFFF" font-family="sans-serif"> Mobile</text><text text-anchor="middle" pointer-events="none" y="5" font-size="10px" fill="#FFFFFF" font-family="sans-serif"> applications for</text><text text-anchor="middle" pointer-events="none" y="15" font-size="10px" fill="#FFFFFF" font-family="sans-serif"> Android</text></g><g class="node" transform="translate(112.96296388319732,66.0031540505682)"><circle class="outline" cx="0" cy="0" r="25" fill="#A5ABB6" stroke="#9AA1AC" stroke-width="2px"/><text text-anchor="middle" pointer-events="none" y="5" font-size="10px" fill="#FFFFFF" font-family="sans-serif"> All users</text></g><g class="node" transform="translate(217.49121573476376,314.7553519783355)"><circle class="outline" cx="0" cy="0" r="40" fill="#FF756E" stroke="#E06760" stroke-width="2px"/><text text-anchor="middle" pointer-events="none" y="0" font-size="10px" fill="#FFFFFF" font-family="sans-serif"> Programming</text><text text-anchor="middle" pointer-events="none" y="10" font-size="10px" fill="#FFFFFF" font-family="sans-serif"> c++</text></g><g class="node" transform="translate(248.01706605626381,46.87049574734646)"><circle class="outline" cx="0" cy="0" r="32.5" fill="#FFD86E" stroke="#EDBA39" stroke-width="2px"/><text text-anchor="middle" pointer-events="none" y="5" font-size="10px" fill="#604A0E" font-family="sans-serif"> User №9</text></g><g class="node" transform="translate(268.92105862166216,-106.45962561945058)"><circle class="outline" cx="0" cy="0" r="40" fill="#FF756E" stroke="#E06760" stroke-width="2px"/><text text-anchor="middle" pointer-events="none" y="0" font-size="10px" fill="#FFFFFF" font-family="sans-serif"> Computer</text><text text-anchor="middle" pointer-events="none" y="10" font-size="10px" fill="#FFFFFF" font-family="sans-serif"> graphics</text></g><g class="node" transform="translate(213.20453429373958,-19.458455080732328)"><circle class="outline" cx="0" cy="0" r="32.5" fill="#FFD86E" stroke="#EDBA39" stroke-width="2px"/><text text-anchor="middle" pointer-events="none" y="5" font-size="10px" fill="#604A0E" font-family="sans-serif"> User №4</text></g><g class="node" transform="translate(362.1321824836146,-33.333883524871815)"><circle class="outline" cx="0" cy="0" r="40" fill="#FF756E" stroke="#E06760" stroke-width="2px"/><text text-anchor="middle" pointer-events="none" y="0" font-size="10px" fill="#FFFFFF" font-family="sans-serif"> Programming</text><text text-anchor="middle" pointer-events="none" y="10" font-size="10px" fill="#FFFFFF" font-family="sans-serif"> Python</text></g><g class="node" transform="translate(65.40881170648463,-53.112191380142406)"><circle class="outline" cx="0" cy="0" r="32.5" fill="#FFD86E" stroke="#EDBA39" stroke-width="2px"/><text text-anchor="middle" pointer-events="none" y="5" font-size="10px" fill="#604A0E" font-family="sans-serif"> User №10</text></g><g class="node" transform="translate(16.837024970324034,-168.40622022551872)"><circle class="outline" cx="0" cy="0" r="40" fill="#FF756E" stroke="#E06760" stroke-width="2px"/><text text-anchor="middle" pointer-events="none" y="0" font-size="10px" fill="#FFFFFF" font-family="sans-serif"> Work with html,</text><text text-anchor="middle" pointer-events="none" y="10" font-size="10px" fill="#FFFFFF" font-family="sans-serif"> css</text></g><g class="node" transform="translate(134.3225099128883,-82.61747465547522)"><circle class="outline" cx="0" cy="0" r="32.5" fill="#FFD86E" stroke="#EDBA39" stroke-width="2px"/><text text-anchor="middle" pointer-events="none" y="5" font-size="10px" fill="#604A0E" font-family="sans-serif"> User №1</text></g><g class="node" transform="translate(-4.664012692334525,-26.56957101913196)"><circle class="outline" cx="0" cy="0" r="32.5" fill="#FFD86E" stroke="#EDBA39" stroke-width="2px"/><text text-anchor="middle" pointer-events="none" y="5" font-size="10px" fill="#604A0E" font-family="sans-serif"> User №5</text></g><g class="node" transform="translate(-27.642677800068487,63.19429627646572)"><circle class="outline" cx="0" cy="0" r="32.5" fill="#FFD86E" stroke="#EDBA39" stroke-width="2px"/><text text-anchor="middle" pointer-events="none" y="5" font-size="10px" fill="#604A0E" font-family="sans-serif"> User №6</text></g><g class="node" transform="translate(-173.4929593931504,52.492148137679195)"><circle class="outline" cx="0" cy="0" r="40" fill="#FF756E" stroke="#E06760" stroke-width="2px"/><text text-anchor="middle" pointer-events="none" y="5" font-size="10px" fill="#FFFFFF" font-family="sans-serif"> PHP Basics.</text></g><g class="node" transform="translate(-88.90083233154353,248.08173093532102)"><circle class="outline" cx="0" cy="0" r="40" fill="#FF756E" stroke="#E06760" stroke-width="2px"/><text text-anchor="middle" pointer-events="none" y="0" font-size="10px" fill="#FFFFFF" font-family="sans-serif"> Programming</text><text text-anchor="middle" pointer-events="none" y="10" font-size="10px" fill="#FFFFFF" font-family="sans-serif"> Java</text></g><g class="node" transform="translate(58.59710283068651,194.91564730951447)"><circle class="outline" cx="0" cy="0" r="32.5" fill="#FFD86E" stroke="#EDBA39" stroke-width="2px"/><text text-anchor="middle" pointer-events="none" y="5" font-size="10px" fill="#604A0E" font-family="sans-serif"> User №2</text></g><g class="node" transform="translate(146.9849129378245,199.29744629250914)"><circle class="outline" cx="0" cy="0" r="32.5" fill="#FFD86E" stroke="#EDBA39" stroke-width="2px"/><text text-anchor="middle" pointer-events="none" y="5" font-size="10px" fill="#604A0E" font-family="sans-serif"> User №7</text></g><g class="node" transform="translate(0.5906778682180618,147.5152845340595)"><circle class="outline" cx="0" cy="0" r="32.5" fill="#FFD86E" stroke="#EDBA39" stroke-width="2px"/><text text-anchor="middle" pointer-events="none" y="5" font-size="10px" fill="#604A0E" font-family="sans-serif"> User №8</text></g><g class="node" transform="translate(-18.573604480503434,304.1821052883105)"><circle class="outline" cx="0" cy="0" r="40" fill="#FF756E" stroke="#E06760" stroke-width="2px"/><text text-anchor="middle" pointer-events="none" y="0" font-size="10px" fill="#FFFFFF" font-family="sans-serif"> The basics of</text><text text-anchor="middle" pointer-events="none" y="10" font-size="10px" fill="#FFFFFF" font-family="sans-serif"> web design</text></g></g></svg>