<svg xmlns="http://www.w3.org/2000/svg" width="606.7597045898438" height="587.7028198242188" viewBox="-199.02345275878906 -218.2515869140625 606.7597045898438 587.7028198242188"><title>Neo4j Graph Visualization</title><desc>Created using Neo4j (http://www.neo4j.com/)</desc><g class="layer relationships"><g class="relationship" transform="translate(145.72085930435304 204.24455868602584) rotate(436.5305119441722)"><path class="outline" fill="#A5ABB6" stroke="none" d="M 32.5 6.5 L 96.05911145262243 6.5 L 96.05911145262243 9.5 L 115.05911145262243 0 L 96.05911145262243 -9.5 L 96.05911145262243 -6.5 L 32.5 -6.5 Z"/><text text-anchor="middle" pointer-events="none" font-size="8px" fill="#FFFFFF" x="64.27955572631122" y="3" font-family="sans-serif">USER_AGE</text></g><g class="relationship" transform="translate(104.35892651207385 67.36979088440711) rotate(399.87884757129245)"><path class="outline" fill="#A5ABB6" stroke="none" d="M 21.15063509461097,-13.366025403784437 L 22.15063509461097,-11.633974596215559 A 91.09707288409821 91.09707288409821 0 0 1 34.759587796158655,-17.6748661992696 L 34.03641233732893,-19.539542379132058 A 93.09707288409821 93.09707288409821 0 0 0 21.15063509461097,-13.366025403784437 Z M 92.59013043112608,-22.449483131521262 L 92.05539914208859,-20.52229283253044 A 91.09707288409821 91.09707288409821 0 0 1 105.20117086724377,-15.761332284508002 L 103.96615864972838,-13.027334328658782 L 112.9035028220135,-13.379299023083371 L 107.25952456310276,-20.317995544256704 L 106.02451234558737,-17.583997588407485 A 93.09707288409821 93.09707288409821 0 0 0 92.59013043112608,-22.449483131521262"/><text text-anchor="middle" pointer-events="none" font-size="8px" fill="#000000" x="63.12787020205585" y="-21.725148352021435" font-family="sans-serif">ABOUT_USER</text></g><g class="relationship" transform="translate(104.35892651207385 67.36979088440711) rotate(466.12741693796454)"><path class="outline" fill="#A5ABB6" stroke="none" d="M 21.15063509461097,-13.366025403784437 L 22.15063509461097,-11.633974596215559 A 90.9279257762033 90.9279257762033 0 0 1 34.68187198195872,-17.642569007673956 L 33.95750208745987,-19.506781510567265 A 92.9279257762033 92.9279257762033 0 0 0 21.15063509461097,-13.366025403784437 Z M 92.50851464066452,-22.4195966547625 L 91.97274637832531,-20.492694381924053 A 90.9279257762033 90.9279257762033 0 0 1 105.03846852879195,-15.757505957474663 L 103.80373661689761,-13.023381398177895 L 112.74104465754812,-13.37626237885535 L 107.09635504861585,-20.314380222969277 L 105.8616231367215,-17.58025566367251 A 92.9279257762033 92.9279257762033 0 0 0 92.50851464066452,-22.4195966547625"/><text text-anchor="middle" pointer-events="none" font-size="8px" fill="#000000" x="63.04698580738796" y="-21.702461405770634" transform="rotate(180 63.04698580738796 -24.702461405770634)" font-family="sans-serif">ABOUT_USER</text></g><g class="relationship" transform="translate(104.35892651207385 67.36979088440711) rotate(533.8939356110875)"><path class="outline" fill="#A5ABB6" stroke="none" d="M 23.889326612124187,-7.436401953852087 L 24.406964702329226,-5.50455030127395 A 162.47206587707083 162.47206587707083 0 0 1 33.1749835988246,-7.595075277643815 L 32.765278141212896,-9.552660892119775 A 164.47206587707083 164.47206587707083 0 0 0 23.889326612124187,-7.436401953852087 Z M 91.78480344481352,-11.078908114352146 L 91.47682441310029,-9.102763151039738 A 162.47206587707083 162.47206587707083 0 0 1 100.34117392565669,-7.4682119082310745 L 99.71552771205785,-4.5341759821713 L 108.37381846634904,-6.777833980654096 L 101.38391761498809,-12.358271784997365 L 100.75827140138925,-9.42423585893759 A 164.47206587707083 164.47206587707083 0 0 0 91.78480344481352,-11.078908114352146"/><text text-anchor="middle" pointer-events="none" font-size="8px" fill="#000000" x="62.23184846879759" y="-8.986018810517038" transform="rotate(180 62.23184846879759 -11.986018810517038)" font-family="sans-serif">ABOUT_USER</text></g><g class="relationship" transform="translate(104.35892651207385 67.36979088440711) rotate(210.2262509873433)"><path class="outline" fill="#A5ABB6" stroke="none" d="M 23.889326612124187,-7.436401953852087 L 24.406964702329226,-5.50455030127395 A 162.69055690135627 162.69055690135627 0 0 1 33.227983515619655,-7.606505663536467 L 32.81878464870203,-9.564197234574493 A 164.69055690135627 164.69055690135627 0 0 0 23.889326612124187,-7.436401953852087 Z M 91.83871472731195,-11.089397570436603 L 91.53117632417515,-9.11318398618107 A 162.69055690135627 162.69055690135627 0 0 1 100.44898685588662,-7.4696376467480095 L 99.82323558521404,-4.535624124752643 L 108.48160667143179,-6.778972098952922 L 101.49190564034092,-12.359660183406952 L 100.86615436966834,-9.425646661411587 A 164.69055690135627 164.69055690135627 0 0 0 91.83871472731195,-11.089397570436603"/><text text-anchor="middle" pointer-events="none" font-size="8px" fill="#000000" x="62.28567942090744" y="-8.99346642487069" transform="rotate(180 62.28567942090744 -11.99346642487069)" font-family="sans-serif">ABOUT_USER</text></g><g class="relationship" transform="translate(104.35892651207385 67.36979088440711) rotate(249.06522886424273)"><path class="outline" fill="#A5ABB6" stroke="none" d="M 23.889326612124187,-7.436401953852087 L 24.406964702329226,-5.50455030127395 A 164.0315021346431 164.0315021346431 0 0 1 33.55340752588609,-7.676446612480163 L 33.147289999774266,-9.634779718717397 A 166.0315021346431 166.0315021346431 0 0 0 23.889326612124187,-7.436401953852087 Z M 92.16965647608627,-11.153583680599723 L 91.86479607671444,-9.176955203395465 A 164.0315021346431 164.0315021346431 0 0 1 101.11083737635285,-7.478346891686496 L 100.4844443577114,-4.544470311767488 L 109.14330592901734,-6.785924368615648 L 102.15482574075526,-12.368141191551512 L 101.5284327221138,-9.434264611632502 A 166.0315021346431 166.0315021346431 0 0 0 92.16965647608627,-11.153583680599723"/><text text-anchor="middle" pointer-events="none" font-size="8px" fill="#000000" x="62.616143123607976" y="-9.039175776062223" transform="rotate(180 62.616143123607976 -12.039175776062223)" font-family="sans-serif">ABOUT_USER</text></g><g class="relationship" transform="translate(104.35892651207385 67.36979088440711) rotate(288.92542065316565)"><path class="outline" fill="#A5ABB6" stroke="none" d="M 23.889326612124187,-7.436401953852087 L 24.406964702329226,-5.50455030127395 A 163.84556774773353 163.84556774773353 0 0 1 33.508269441507025,-7.666770133110617 L 33.10172748730721,-9.625015173823186 A 165.84556774773353 165.84556774773353 0 0 0 23.889326612124187,-7.436401953852087 Z M 92.12376098487351,-11.144703115714208 L 91.81853193066937,-9.168131532272412 A 163.84556774773353 163.84556774773353 0 0 1 101.01904832416562,-7.477143463250542 L 100.3927439809364,-4.543247952218798 L 109.05153780132667,-6.784963718316538 L 102.06288889621432,-12.366969314970113 L 101.4365845529851,-9.43307380393837 A 165.84556774773353 165.84556774773353 0 0 0 92.12376098487351,-11.144703115714208"/><text text-anchor="middle" pointer-events="none" font-size="8px" fill="#000000" x="62.57031240338358" y="-9.032837642424028" font-family="sans-serif">ABOUT_USER</text></g><g class="relationship" transform="translate(104.35892651207385 67.36979088440711) rotate(328.5910996451668)"><path class="outline" fill="#A5ABB6" stroke="none" d="M 23.889326612124187,-7.436401953852087 L 24.406964702329226,-5.50455030127395 A 162.63083899285098 162.63083899285098 0 0 1 33.2134969188725,-7.603382476902851 L 32.80415971761424,-9.561045128042224 A 164.63083899285098 164.63083899285098 0 0 0 23.889326612124187,-7.436401953852087 Z M 91.82397938289915,-11.08653146811696 L 91.51632066739788,-9.110336610625382 A 162.63083899285098 162.63083899285098 0 0 1 100.41951867985402,-7.4692481506492765 L 99.79379610961017,-4.5352285077212615 L 108.45214525107667,-6.77866117764169 L 101.46238963026043,-12.359280888862635 L 100.83666706001658,-9.42526124593462 A 164.63083899285098 164.63083899285098 0 0 0 91.82397938289915,-11.08653146811696"/><text text-anchor="middle" pointer-events="none" font-size="8px" fill="#000000" x="62.27096596349443" y="-8.99143083987451" font-family="sans-serif">ABOUT_USER</text></g><g class="relationship" transform="translate(104.35892651207385 67.36979088440711) rotate(365.12219942692116)"><path class="outline" fill="#A5ABB6" stroke="none" d="M 23.889326612124187,-7.436401953852087 L 24.406964702329226,-5.50455030127395 A 161.76644853526943 161.76644853526943 0 0 1 33.00386674951927,-7.558094230733985 L 32.59251648506587,-9.515334880203056 A 163.76644853526943 163.76644853526943 0 0 0 23.889326612124187,-7.436401953852087 Z M 91.6107193380259,-11.044972017386954 L 91.30130899026818,-9.06905065338978 A 161.76644853526943 161.76644853526943 0 0 1 99.9930452061898,-7.463594633425764 L 99.36773922210651,-4.529486178329121 L 108.02576974780862,-6.7741481609024925 L 101.03522184632865,-12.353775391920168 L 100.40991586224536,-9.419666936823525 A 163.76644853526943 163.76644853526943 0 0 0 91.6107193380259,-11.044972017386954"/><text text-anchor="middle" pointer-events="none" font-size="8px" fill="#000000" x="62.058028570541794" y="-8.961967067901327" font-family="sans-serif">ABOUT_USER</text></g><g class="relationship" transform="translate(104.35892651207385 67.36979088440711) rotate(433.1858052126522)"><path class="outline" fill="#A5ABB6" stroke="none" d="M 23.889326612124187,-7.436401953852087 L 24.406964702329226,-5.50455030127395 A 168.21331027528387 168.21331027528387 0 0 1 34.569844783583186,-7.8923077441382645 L 34.17303993855502,-9.852549034123314 A 170.21331027528387 170.21331027528387 0 0 0 23.889326612124187,-7.436401953852087 Z M 93.20250301781516,-11.351718031100347 L 92.9057138896835,-9.373861561731843 A 168.21331027528387 168.21331027528387 0 0 1 103.17669758071165,-7.505062168930171 L 102.54833604710161,-4.571606564514239 L 111.20869970369081,-6.8072499474420525 L 104.22396680339504,-12.394154842956725 L 103.59560526978501,-9.460699238540792 A 170.21331027528387 170.21331027528387 0 0 0 93.20250301781516,-11.351718031100347"/><text text-anchor="middle" pointer-events="none" font-size="8px" fill="#000000" x="63.64765441408902" y="-9.181734470653225" font-family="sans-serif">ABOUT_USER</text></g><g class="relationship" transform="translate(104.35892651207385 67.36979088440711) rotate(399.87884757129245)"><path class="outline" fill="#A5ABB6" stroke="none" d="M 25 1 L 32.01090700519002 1 L 32.01090700519002 -1 L 25 -1 Z M 95.01090700519002 1 L 102.02181401038004 1 L 102.02181401038004 4 L 110.02181401038004 0 L 102.02181401038004 -4 L 102.02181401038004 -1 L 95.01090700519002 -1 Z"/><text text-anchor="middle" pointer-events="none" font-size="8px" fill="#000000" x="63.51090700519002" y="3" font-family="sans-serif">ABOUT_USER1</text></g><g class="relationship" transform="translate(104.35892651207385 67.36979088440711) rotate(499.4146117029163)"><path class="outline" fill="#A5ABB6" stroke="none" d="M 23.889326612124187,-7.436401953852087 L 24.406964702329226,-5.50455030127395 A 168.25328060646663 168.25328060646663 0 0 1 34.579571318903525,-7.894355021572295 L 34.18285338645003,-9.854613902962683 A 170.25328060646663 170.25328060646663 0 0 0 23.889326612124187,-7.436401953852087 Z M 93.21238081345686,-11.353597478728858 L 92.91566685177317,-9.375729731648192 A 168.25328060646663 168.25328060646663 0 0 1 103.19645661482234,-7.505314316636122 L 102.56807650187243,-4.571862692073504 L 111.22845431797262,-6.807451223623926 L 104.24375680307217,-12.39440035757382 L 103.61537669012226,-9.460948733011202 A 170.25328060646663 170.25328060646663 0 0 0 93.21238081345686,-11.353597478728858"/><text text-anchor="middle" pointer-events="none" font-size="8px" fill="#000000" x="63.65752051835725" y="-9.183097149675973" transform="rotate(180 63.65752051835725 -12.183097149675973)" font-family="sans-serif">ABOUT_USER</text></g><g class="relationship" transform="translate(104.35892651207385 67.36979088440711) rotate(399.87884757129245)"><path class="outline" fill="#A5ABB6" stroke="none" d="M 21.15063509461097,13.366025403784437 L 22.15063509461097,11.633974596215559 A 91.09707288409821 91.09707288409821 0 0 0 32.92307019024523,16.939573053844512 L 32.15957471787895,18.788106165172564 A 93.09707288409821 93.09707288409821 0 0 1 21.15063509461097,13.366025403784437 Z M 94.53222427122864,21.887836134139476 L 93.95577107236224,19.97271167094742 A 91.09707288409821 91.09707288409821 0 0 0 105.20117086724377,15.761332284508002 L 103.96615864972838,13.027334328658782 L 112.9035028220135,13.379299023083371 L 107.25952456310276,20.317995544256704 L 106.02451234558737,17.583997588407485 A 93.09707288409821 93.09707288409821 0 0 1 94.53222427122864,21.887836134139476"/><text text-anchor="middle" pointer-events="none" font-size="8px" fill="#000000" x="63.12787020205583" y="27.725148352021435" font-family="sans-serif">ABOUT_USER1</text></g><g class="relationship" transform="translate(104.35892651207385 67.36979088440711) rotate(466.12741693796454)"><path class="outline" fill="#A5ABB6" stroke="none" d="M 25 1 L 31.93036369163157 1 L 31.93036369163157 -1 L 25 -1 Z M 94.93036369163157 1 L 101.86072738326314 1 L 101.86072738326314 4 L 109.86072738326314 0 L 101.86072738326314 -4 L 101.86072738326314 -1 L 94.93036369163157 -1 Z"/><text text-anchor="middle" pointer-events="none" font-size="8px" fill="#000000" x="63.43036369163157" y="3" transform="rotate(180 63.43036369163157 0)" font-family="sans-serif">ABOUT_USER1</text></g><g class="relationship" transform="translate(104.35892651207385 67.36979088440711) rotate(533.8939356110875)"><path class="outline" fill="#A5ABB6" stroke="none" d="M 23.889326612124187,7.436401953852087 L 24.406964702329226,5.50455030127395 A 162.47206587707083 162.47206587707083 0 0 0 31.23191247755551,7.175984606608665 L 30.79828818674894,9.128411295225305 A 164.47206587707083 164.47206587707083 0 0 1 23.889326612124187,7.436401953852087 Z M 93.77109189968178,10.75689045104096 L 93.43895936269973,8.784661261043567 A 162.47206587707083 162.47206587707083 0 0 0 100.34117392565669,7.4682119082310745 L 99.71552771205785,4.5341759821713 L 108.37381846634904,6.777833980654096 L 101.38391761498809,12.358271784997365 L 100.75827140138925,9.42423585893759 A 164.47206587707083 164.47206587707083 0 0 1 93.77109189968178,10.75689045104096"/><text text-anchor="middle" pointer-events="none" font-size="8px" fill="#000000" x="62.23184846879761" y="14.986018810517038" transform="rotate(180 62.23184846879761 11.986018810517038)" font-family="sans-serif">ABOUT_USER1</text></g><g class="relationship" transform="translate(104.35892651207385 67.36979088440711) rotate(466.12741693796454)"><path class="outline" fill="#A5ABB6" stroke="none" d="M 21.15063509461097,13.366025403784437 L 22.15063509461097,11.633974596215559 A 90.9279257762033 90.9279257762033 0 0 0 32.84587774192381,16.906077715938665 L 32.08112434094195,18.754090766673613 A 92.9279257762033 92.9279257762033 0 0 1 21.15063509461097,13.366025403784437 Z M 94.45033296370177,21.856854792193516 L 93.87277277914288,19.94206388109845 A 90.9279257762033 90.9279257762033 0 0 0 105.03846852879195,15.757505957474663 L 103.80373661689761,13.023381398177895 L 112.74104465754812,13.37626237885535 L 107.09635504861585,20.314380222969277 L 105.8616231367215,17.58025566367251 A 92.9279257762033 92.9279257762033 0 0 1 94.45033296370177,21.856854792193516"/><text text-anchor="middle" pointer-events="none" font-size="8px" fill="#000000" x="63.04698580738795" y="27.702461405770634" transform="rotate(180 63.04698580738795 24.702461405770634)" font-family="sans-serif">ABOUT_USER1</text></g><g class="relationship" transform="translate(104.35892651207385 67.36979088440711) rotate(499.4146117029163)"><path class="outline" fill="#A5ABB6" stroke="none" d="M 23.889326612124187,7.436401953852087 L 24.406964702329226,5.50455030127395 A 168.25328060646663 168.25328060646663 0 0 0 32.63326964896558,7.4884769529946595 L 32.21341633795753,9.443911226304692 A 170.25328060646663 170.25328060646663 0 0 1 23.889326612124187,7.436401953852087 Z M 95.20012469196358,11.043382633745324 L 94.88006029766059,9.069159043697965 A 168.25328060646663 168.25328060646663 0 0 0 103.19645661482234,7.505314316636122 L 102.56807650187243,4.571862692073504 L 111.22845431797262,6.807451223623926 L 104.24375680307217,12.39440035757382 L 103.61537669012226,9.460948733011202 A 170.25328060646663 170.25328060646663 0 0 1 95.20012469196358,11.043382633745324"/><text text-anchor="middle" pointer-events="none" font-size="8px" fill="#000000" x="63.65752051835728" y="15.183097149675973" transform="rotate(180 63.65752051835728 12.183097149675973)" font-family="sans-serif">ABOUT_USER1</text></g><g class="relationship" transform="translate(104.35892651207385 67.36979088440711) rotate(365.12219942692116)"><path class="outline" fill="#A5ABB6" stroke="none" d="M 23.889326612124187,7.436401953852087 L 24.406964702329226,5.50455030127395 A 161.76644853526943 161.76644853526943 0 0 0 31.061211573885153,7.137330683512886 L 30.625843286000773,9.089369221530148 A 163.76644853526943 163.76644853526943 0 0 1 23.889326612124187,7.436401953852087 Z M 93.5968176842378,10.72145451637013 L 93.26315208317301,8.749484114293551 A 161.76644853526943 161.76644853526943 0 0 0 99.9930452061898,7.463594633425764 L 99.36773922210651,4.529486178329121 L 108.02576974780862,6.7741481609024925 L 101.03522184632865,12.353775391920168 L 100.40991586224536,9.419666936823525 A 163.76644853526943 163.76644853526943 0 0 1 93.5968176842378,10.72145451637013"/><text text-anchor="middle" pointer-events="none" font-size="8px" fill="#000000" x="62.05802857054182" y="14.961967067901327" font-family="sans-serif">ABOUT_USER1</text></g><g class="relationship" transform="translate(104.35892651207385 67.36979088440711) rotate(288.92542065316565)"><path class="outline" fill="#A5ABB6" stroke="none" d="M 23.889326612124187,7.436401953852087 L 24.406964702329226,5.50455030127395 A 163.84556774773353 163.84556774773353 0 0 0 31.564402629371195,7.250897228644021 L 31.13413263859576,9.20406586832624 A 165.84556774773353 165.84556774773353 0 0 1 23.889326612124187,7.436401953852087 Z M 94.11041141150643,10.825566955378832 L 93.78122452166504,8.852843966321188 A 163.84556774773353 163.84556774773353 0 0 0 101.01904832416562,7.477143463250542 L 100.3927439809364,4.543247952218798 L 109.05153780132667,6.784963718316538 L 102.06288889621432,12.366969314970113 L 101.4365845529851,9.43307380393837 A 165.84556774773353 165.84556774773353 0 0 1 94.11041141150643,10.825566955378832"/><text text-anchor="middle" pointer-events="none" font-size="8px" fill="#000000" x="62.57031240338361" y="15.032837642424028" font-family="sans-serif">ABOUT_USER1</text></g><g class="relationship" transform="translate(104.35892651207385 67.36979088440711) rotate(433.1858052126522)"><path class="outline" fill="#A5ABB6" stroke="none" d="M 23.889326612124187,7.436401953852087 L 24.406964702329226,5.50455030127395 A 168.21331027528387 168.21331027528387 0 0 0 32.6235644155059,7.486341236615061 L 32.20361894783745,9.44175572060169 A 170.21331027528387 170.21331027528387 0 0 1 23.889326612124187,7.436401953852087 Z M 95.19023742482132,11.041424440581835 L 94.87009249209609,9.067213909242696 A 168.21331027528387 168.21331027528387 0 0 0 103.17669758071165,7.505062168930171 L 102.54833604710161,4.571606564514239 L 111.20869970369081,6.8072499474420525 L 104.22396680339504,12.394154842956725 L 103.59560526978501,9.460699238540792 A 170.21331027528387 170.21331027528387 0 0 1 95.19023742482132,11.041424440581835"/><text text-anchor="middle" pointer-events="none" font-size="8px" fill="#000000" x="63.64765441408901" y="15.181734470653225" font-family="sans-serif">ABOUT_USER1</text></g><g class="relationship" transform="translate(104.35892651207385 67.36979088440711) rotate(249.06522886424273)"><path class="outline" fill="#A5ABB6" stroke="none" d="M 23.889326612124187,7.436401953852087 L 24.406964702329226,5.50455030127395 A 164.0315021346431 164.0315021346431 0 0 0 31.60943439193155,7.261005443882681 L 31.17961442929191,9.214273167395362 A 166.0315021346431 166.0315021346431 0 0 1 23.889326612124187,7.436401953852087 Z M 94.15635509957166,10.8348337946085 L 93.82756311374854,8.862044948822273 A 164.0315021346431 164.0315021346431 0 0 0 101.11083737635285,7.478346891686496 L 100.4844443577114,4.544470311767488 L 109.14330592901734,6.785924368615648 L 102.15482574075526,12.368141191551512 L 101.5284327221138,9.434264611632502 A 166.0315021346431 166.0315021346431 0 0 1 94.15635509957166,10.8348337946085"/><text text-anchor="middle" pointer-events="none" font-size="8px" fill="#000000" x="62.61614312360801" y="15.039175776062223" transform="rotate(180 62.61614312360801 12.039175776062223)" font-family="sans-serif">ABOUT_USER1</text></g><g class="relationship" transform="translate(104.35892651207385 67.36979088440711) rotate(328.5910996451668)"><path class="outline" fill="#A5ABB6" stroke="none" d="M 23.889326612124187,7.436401953852087 L 24.406964702329226,5.50455030127395 A 162.63083899285098 162.63083899285098 0 0 0 31.270332881453236,7.18466636017385 L 30.837099055797623,9.137179728196656 A 164.63083899285098 164.63083899285098 0 0 1 23.889326612124187,7.436401953852087 Z M 93.81031022224623,10.764849449484586 L 93.47852078067325,8.792562511318465 A 162.63083899285098 162.63083899285098 0 0 0 100.41951867985402,7.4692481506492765 L 99.79379610961017,4.5352285077212615 L 108.45214525107667,6.77866117764169 L 101.46238963026043,12.359280888862635 L 100.83666706001658,9.42526124593462 A 164.63083899285098 164.63083899285098 0 0 1 93.81031022224623,10.764849449484586"/><text text-anchor="middle" pointer-events="none" font-size="8px" fill="#000000" x="62.27096596349443" y="14.99143083987451" font-family="sans-serif">ABOUT_USER1</text></g><g class="relationship" transform="translate(104.35892651207385 67.36979088440711) rotate(210.2262509873433)"><path class="outline" fill="#A5ABB6" stroke="none" d="M 23.889326612124187,7.436401953852087 L 24.406964702329226,5.50455030127395 A 162.69055690135627 162.69055690135627 0 0 0 31.28478459439443,7.187930248228923 L 30.851697445842817,9.140476155950267 A 164.69055690135627 164.69055690135627 0 0 1 23.889326612124187,7.436401953852087 Z M 93.82506147134538,10.767841621042066 L 93.49340089895483,8.795533008090842 A 162.69055690135627 162.69055690135627 0 0 0 100.44898685588662,7.4696376467480095 L 99.82323558521404,4.535624124752643 L 108.48160667143179,6.778972098952922 L 101.49190564034092,12.359660183406952 L 100.86615436966834,9.425646661411587 A 164.69055690135627 164.69055690135627 0 0 1 93.82506147134538,10.767841621042066"/><text text-anchor="middle" pointer-events="none" font-size="8px" fill="#000000" x="62.28567942090747" y="14.99346642487069" transform="rotate(180 62.28567942090747 11.99346642487069)" font-family="sans-serif">ABOUT_USER1</text></g><g class="relationship" transform="translate(213.73043874341943 158.74998447709973) rotate(404.6978704011998)"><path class="outline" fill="#A5ABB6" stroke="none" d="M 32.5 6.5 L 95.19216845736952 6.5 L 95.19216845736952 9.5 L 114.19216845736952 0 L 95.19216845736952 -9.5 L 95.19216845736952 -6.5 L 32.5 -6.5 Z"/><text text-anchor="middle" pointer-events="none" font-size="8px" fill="#FFFFFF" x="63.84608422868476" y="3" font-family="sans-serif">USER_AGE</text></g><g class="relationship" transform="translate(243.61253893895966 79.8522305783543) rotate(369.86359003985916)"><path class="outline" fill="#A5ABB6" stroke="none" d="M 32.5 6.5 L 93.15104672854332 6.5 L 93.15104672854332 9.5 L 112.15104672854332 0 L 93.15104672854332 -9.5 L 93.15104672854332 -6.5 L 32.5 -6.5 Z"/><text text-anchor="middle" pointer-events="none" font-size="8px" fill="#FFFFFF" x="62.82552336427166" y="3" font-family="sans-serif">USER_AGE</text></g><g class="relationship" transform="translate(224.04728388321615 -5.713816733793924) rotate(333.87868244680953)"><path class="outline" fill="#A5ABB6" stroke="none" d="M 32.5 6.5 L 91.78289831632856 6.5 L 91.78289831632856 9.5 L 110.78289831632856 0 L 91.78289831632856 -9.5 L 91.78289831632856 -6.5 L 32.5 -6.5 Z"/><text text-anchor="middle" pointer-events="none" font-size="8px" fill="#FFFFFF" x="62.14144915816428" y="3" font-family="sans-serif">USER_AGE</text></g><g class="relationship" transform="translate(150.0370792337587 -65.85227148271306) rotate(293.48717627406165)"><path class="outline" fill="#A5ABB6" stroke="none" d="M 32.5 6.5 L 90.54660239351853 6.5 L 90.54660239351853 9.5 L 109.54660239351853 0 L 90.54660239351853 -9.5 L 90.54660239351853 -6.5 L 32.5 -6.5 Z"/><text text-anchor="middle" pointer-events="none" font-size="8px" fill="#FFFFFF" x="61.52330119675926" y="3" font-family="sans-serif">USER_AGE</text></g><g class="relationship" transform="translate(54.005033511109076 -64.25427992647313) rotate(242.3525022964143)"><path class="outline" fill="#A5ABB6" stroke="none" d="M 32.5 6.5 L 90.8156806584322 6.5 L 90.8156806584322 9.5 L 109.8156806584322 0 L 90.8156806584322 -9.5 L 90.8156806584322 -6.5 L 32.5 -6.5 Z"/><text text-anchor="middle" pointer-events="none" font-size="8px" fill="#FFFFFF" x="61.6578403292161" y="3" transform="rotate(180 61.6578403292161 0)" font-family="sans-serif">USER_AGE</text></g><g class="relationship" transform="translate(-16.837754254662052 -3.242719431359822) rotate(202.57695661484576)"><path class="outline" fill="#A5ABB6" stroke="none" d="M 32.5 6.5 L 92.18868270579279 6.5 L 92.18868270579279 9.5 L 111.18868270579279 0 L 92.18868270579279 -9.5 L 92.18868270579279 -6.5 L 32.5 -6.5 Z"/><text text-anchor="middle" pointer-events="none" font-size="8px" fill="#FFFFFF" x="62.34434135289639" y="3" transform="rotate(180 62.34434135289639 0)" font-family="sans-serif">USER_AGE</text></g><g class="relationship" transform="translate(-35.005114686527655 82.27842979503856) rotate(528.1112752171805)"><path class="outline" fill="#A5ABB6" stroke="none" d="M 32.5 6.5 L 93.97802562277366 6.5 L 93.97802562277366 9.5 L 112.97802562277366 0 L 93.97802562277366 -9.5 L 93.97802562277366 -6.5 L 32.5 -6.5 Z"/><text text-anchor="middle" pointer-events="none" font-size="8px" fill="#FFFFFF" x="63.23901281138683" y="3" transform="rotate(180 63.23901281138683 0)" font-family="sans-serif">USER_AGE</text></g><g class="relationship" transform="translate(-4.246305560882357 160.40769986712564) rotate(495.1064814365256)"><path class="outline" fill="#A5ABB6" stroke="none" d="M 32.5 6.5 L 96.16902579707573 6.5 L 96.16902579707573 9.5 L 115.16902579707573 0 L 96.16902579707573 -9.5 L 96.16902579707573 -6.5 L 32.5 -6.5 Z"/><text text-anchor="middle" pointer-events="none" font-size="8px" fill="#FFFFFF" x="64.33451289853787" y="3" transform="rotate(180 64.33451289853787 0)" font-family="sans-serif">USER_AGE</text></g><g class="relationship" transform="translate(64.81476521054987 204.12810327546734) rotate(466.77144789408663)"><path class="outline" fill="#A5ABB6" stroke="none" d="M 32.5 6.5 L 95.53574468064105 6.5 L 95.53574468064105 9.5 L 114.53574468064105 0 L 95.53574468064105 -9.5 L 95.53574468064105 -6.5 L 32.5 -6.5 Z"/><text text-anchor="middle" pointer-events="none" font-size="8px" fill="#FFFFFF" x="64.01787234032052" y="3" transform="rotate(180 64.01787234032052 0)" font-family="sans-serif">USER_AGE</text></g></g><g class="layer nodes"><g class="node" transform="translate(178.3444795062338,340.4512182362165)"><circle class="outline" cx="0" cy="0" r="25" fill="#A5ABB6" stroke="#9AA1AC" stroke-width="2px"/><text text-anchor="middle" pointer-events="none" y="5" font-size="10px" fill="#FFFFFF" font-family="sans-serif"> 26</text></g><g class="node" transform="translate(104.35892651207385,67.36979088440711)"><circle class="outline" cx="0" cy="0" r="25" fill="#A5ABB6" stroke="#9AA1AC" stroke-width="2px"/><text text-anchor="middle" pointer-events="none" y="5" font-size="10px" fill="#FFFFFF" font-family="sans-serif"> All users</text></g><g class="node" transform="translate(145.72085930435304,204.24455868602584)"><circle class="outline" cx="0" cy="0" r="32.5" fill="#FFD86E" stroke="#EDBA39" stroke-width="2px"/><text text-anchor="middle" pointer-events="none" y="5" font-size="10px" fill="#604A0E" font-family="sans-serif"> User №8</text></g><g class="node" transform="translate(213.73043874341943,158.74998447709973)"><circle class="outline" cx="0" cy="0" r="32.5" fill="#FFD86E" stroke="#EDBA39" stroke-width="2px"/><text text-anchor="middle" pointer-events="none" y="5" font-size="10px" fill="#604A0E" font-family="sans-serif"> User №1</text></g><g class="node" transform="translate(312.671797840467,256.65334100737306)"><circle class="outline" cx="0" cy="0" r="25" fill="#A5ABB6" stroke="#9AA1AC" stroke-width="2px"/><text text-anchor="middle" pointer-events="none" y="5" font-size="10px" fill="#FFFFFF" font-family="sans-serif"> 19</text></g><g class="node" transform="translate(378.73627151407203,103.34662381811658)"><circle class="outline" cx="0" cy="0" r="25" fill="#A5ABB6" stroke="#9AA1AC" stroke-width="2px"/><text text-anchor="middle" pointer-events="none" y="5" font-size="10px" fill="#FFFFFF" font-family="sans-serif"> 32</text></g><g class="node" transform="translate(243.61253893895966,79.8522305783543)"><circle class="outline" cx="0" cy="0" r="32.5" fill="#FFD86E" stroke="#EDBA39" stroke-width="2px"/><text text-anchor="middle" pointer-events="none" y="5" font-size="10px" fill="#604A0E" font-family="sans-serif"> User №9</text></g><g class="node" transform="translate(345.96183690318355,-65.49539614688723)"><circle class="outline" cx="0" cy="0" r="25" fill="#A5ABB6" stroke="#9AA1AC" stroke-width="2px"/><text text-anchor="middle" pointer-events="none" y="5" font-size="10px" fill="#FFFFFF" font-family="sans-serif"> 25</text></g><g class="node" transform="translate(224.04728388321615,-5.713816733793924)"><circle class="outline" cx="0" cy="0" r="32.5" fill="#FFD86E" stroke="#EDBA39" stroke-width="2px"/><text text-anchor="middle" pointer-events="none" y="5" font-size="10px" fill="#604A0E" font-family="sans-serif"> User №6</text></g><g class="node" transform="translate(203.65979423628912,-189.25159340709385)"><circle class="outline" cx="0" cy="0" r="25" fill="#A5ABB6" stroke="#9AA1AC" stroke-width="2px"/><text text-anchor="middle" pointer-events="none" y="5" font-size="10px" fill="#FFFFFF" font-family="sans-serif"> 31</text></g><g class="node" transform="translate(150.0370792337587,-65.85227148271306)"><circle class="outline" cx="0" cy="0" r="32.5" fill="#FFD86E" stroke="#EDBA39" stroke-width="2px"/><text text-anchor="middle" pointer-events="none" y="5" font-size="10px" fill="#604A0E" font-family="sans-serif"> User №7</text></g><g class="node" transform="translate(54.005033511109076,-64.25427992647313)"><circle class="outline" cx="0" cy="0" r="32.5" fill="#FFD86E" stroke="#EDBA39" stroke-width="2px"/><text text-anchor="middle" pointer-events="none" y="5" font-size="10px" fill="#604A0E" font-family="sans-serif"> User №4</text></g><g class="node" transform="translate(-8.553558359990294,-183.67659917418155)"><circle class="outline" cx="0" cy="0" r="25" fill="#A5ABB6" stroke="#9AA1AC" stroke-width="2px"/><text text-anchor="middle" pointer-events="none" y="5" font-size="10px" fill="#FFFFFF" font-family="sans-serif"> 30</text></g><g class="node" transform="translate(-142.5895763321084,-55.52882218669414)"><circle class="outline" cx="0" cy="0" r="25" fill="#A5ABB6" stroke="#9AA1AC" stroke-width="2px"/><text text-anchor="middle" pointer-events="none" y="5" font-size="10px" fill="#FFFFFF" font-family="sans-serif"> 23</text></g><g class="node" transform="translate(-16.837754254662052,-3.242719431359822)"><circle class="outline" cx="0" cy="0" r="32.5" fill="#FFD86E" stroke="#EDBA39" stroke-width="2px"/><text text-anchor="middle" pointer-events="none" y="5" font-size="10px" fill="#604A0E" font-family="sans-serif"> User №5</text></g><g class="node" transform="translate(-35.005114686527655,82.27842979503856)"><circle class="outline" cx="0" cy="0" r="32.5" fill="#FFD86E" stroke="#EDBA39" stroke-width="2px"/><text text-anchor="middle" pointer-events="none" y="5" font-size="10px" fill="#604A0E" font-family="sans-serif"> User №2</text></g><g class="node" transform="translate(-170.02344888063715,110.70350650921027)"><circle class="outline" cx="0" cy="0" r="25" fill="#A5ABB6" stroke="#9AA1AC" stroke-width="2px"/><text text-anchor="middle" pointer-events="none" y="5" font-size="10px" fill="#FFFFFF" font-family="sans-serif"> 17</text></g><g class="node" transform="translate(-103.54480239419956,259.33779801498446)"><circle class="outline" cx="0" cy="0" r="25" fill="#A5ABB6" stroke="#9AA1AC" stroke-width="2px"/><text text-anchor="middle" pointer-events="none" y="5" font-size="10px" fill="#FFFFFF" font-family="sans-serif"> 24</text></g><g class="node" transform="translate(-4.246305560882357,160.40769986712564)"><circle class="outline" cx="0" cy="0" r="32.5" fill="#FFD86E" stroke="#EDBA39" stroke-width="2px"/><text text-anchor="middle" pointer-events="none" y="5" font-size="10px" fill="#604A0E" font-family="sans-serif"> User №10</text></g><g class="node" transform="translate(24.551070024914537,337.7284733856556)"><circle class="outline" cx="0" cy="0" r="25" fill="#A5ABB6" stroke="#9AA1AC" stroke-width="2px"/><text text-anchor="middle" pointer-events="none" y="5" font-size="10px" fill="#FFFFFF" font-family="sans-serif"> 36</text></g><g class="node" transform="translate(64.81476521054987,204.12810327546734)"><circle class="outline" cx="0" cy="0" r="32.5" fill="#FFD86E" stroke="#EDBA39" stroke-width="2px"/><text text-anchor="middle" pointer-events="none" y="5" font-size="10px" fill="#604A0E" font-family="sans-serif"> User №3</text></g></g></svg>