<svg xmlns="http://www.w3.org/2000/svg" width="785.1514892578125" height="636.9193725585938" viewBox="-173.20684814453125 -210.6226348876953 785.1514892578125 636.9193725585938"><title>Neo4j Graph Visualization</title><desc>Created using Neo4j (http://www.neo4j.com/)</desc><g class="layer relationships"><g class="relationship" transform="translate(132.13898456698863 247.91686853649637) rotate(486.8455315314974)"><path class="outline" fill="#A5ABB6" stroke="none" d="M 32.5 1.5 L 53.2157052433769 1.5 L 53.2157052433769 -1.5 L 32.5 -1.5 Z M 84.2157052433769 1.5 L 104.9314104867538 1.5 L 104.9314104867538 4.5 L 113.9314104867538 0 L 104.9314104867538 -4.5 L 104.9314104867538 -1.5 L 84.2157052433769 -1.5 Z"/><text text-anchor="middle" pointer-events="none" font-size="8px" fill="#000000" x="68.7157052433769" y="3" transform="rotate(180 68.7157052433769 0)" font-family="sans-serif">LIVING</text></g><g class="relationship" transform="translate(160.33866634372734 95.5057715039651) rotate(346.2167272654939)"><path class="outline" fill="#A5ABB6" stroke="none" d="M 40 1.5 L 93.58980518995304 1.5 L 93.58980518995304 -1.5 L 40 -1.5 Z M 151.44527393995304 1.5 L 205.03507912990608 1.5 L 205.03507912990608 4.5 L 214.03507912990608 0 L 205.03507912990608 -4.5 L 205.03507912990608 -1.5 L 151.44527393995304 -1.5 Z"/><text text-anchor="middle" pointer-events="none" font-size="8px" fill="#000000" x="122.51753956495304" y="3" font-family="sans-serif">IN_COUNTRY</text></g><g class="relationship" transform="translate(160.33866634372734 95.5057715039651) rotate(357.12917303221764)"><path class="outline" fill="#A5ABB6" stroke="none" d="M 40 1.5 L 178.13606050105014 1.5 L 178.13606050105014 -1.5 L 40 -1.5 Z M 235.99152925105014 1.5 L 374.1275897521003 1.5 L 374.1275897521003 4.5 L 383.1275897521003 0 L 374.1275897521003 -4.5 L 374.1275897521003 -1.5 L 235.99152925105014 -1.5 Z"/><text text-anchor="middle" pointer-events="none" font-size="8px" fill="#000000" x="207.06379487605014" y="3" font-family="sans-serif">IN_COUNTRY</text></g><g class="relationship" transform="translate(160.33866634372734 95.5057715039651) rotate(369.6292579088252)"><path class="outline" fill="#A5ABB6" stroke="none" d="M 40 1.5 L 85.87423210762151 1.5 L 85.87423210762151 -1.5 L 40 -1.5 Z M 143.7297008576215 1.5 L 189.60393296524302 1.5 L 189.60393296524302 4.5 L 198.60393296524302 0 L 189.60393296524302 -4.5 L 189.60393296524302 -1.5 L 143.7297008576215 -1.5 Z"/><text text-anchor="middle" pointer-events="none" font-size="8px" fill="#000000" x="114.80196648262151" y="3" font-family="sans-serif">IN_COUNTRY</text></g><g class="relationship" transform="translate(160.33866634372734 95.5057715039651) rotate(336.1358746713611)"><path class="outline" fill="#A5ABB6" stroke="none" d="M 40 1.5 L 57.72093253125311 1.5 L 57.72093253125311 -1.5 L 40 -1.5 Z M 115.57640128125311 1.5 L 133.29733381250622 1.5 L 133.29733381250622 4.5 L 142.29733381250622 0 L 133.29733381250622 -4.5 L 133.29733381250622 -1.5 L 115.57640128125311 -1.5 Z"/><text text-anchor="middle" pointer-events="none" font-size="8px" fill="#000000" x="86.64866690625311" y="3" font-family="sans-serif">IN_COUNTRY</text></g><g class="relationship" transform="translate(160.33866634372734 95.5057715039651) rotate(495.8902532771)"><path class="outline" fill="#A5ABB6" stroke="none" d="M 40 1.5 L 46.92496554232895 1.5 L 46.92496554232895 -1.5 L 40 -1.5 Z M 104.78043429232895 1.5 L 111.7053998346579 1.5 L 111.7053998346579 4.5 L 120.7053998346579 0 L 111.7053998346579 -4.5 L 111.7053998346579 -1.5 L 104.78043429232895 -1.5 Z"/><text text-anchor="middle" pointer-events="none" font-size="8px" fill="#000000" x="75.85269991732895" y="3" transform="rotate(180 75.85269991732895 0)" font-family="sans-serif">IN_COUNTRY</text></g><g class="relationship" transform="translate(160.33866634372734 95.5057715039651) rotate(525.6611106277112)"><path class="outline" fill="#A5ABB6" stroke="none" d="M 40 1.5 L 48.07535998728372 1.5 L 48.07535998728372 -1.5 L 40 -1.5 Z M 105.93082873728372 1.5 L 114.00618872456744 1.5 L 114.00618872456744 4.5 L 123.00618872456744 0 L 114.00618872456744 -4.5 L 114.00618872456744 -1.5 L 105.93082873728372 -1.5 Z"/><text text-anchor="middle" pointer-events="none" font-size="8px" fill="#000000" x="77.00309436228372" y="3" transform="rotate(180 77.00309436228372 0)" font-family="sans-serif">IN_COUNTRY</text></g><g class="relationship" transform="translate(160.33866634372734 95.5057715039651) rotate(383.21015034656625)"><path class="outline" fill="#A5ABB6" stroke="none" d="M 40 1.5 L 132.62832361650553 1.5 L 132.62832361650553 -1.5 L 40 -1.5 Z M 190.48379236650553 1.5 L 283.11211598301105 1.5 L 283.11211598301105 4.5 L 292.11211598301105 0 L 283.11211598301105 -4.5 L 283.11211598301105 -1.5 L 190.48379236650553 -1.5 Z"/><text text-anchor="middle" pointer-events="none" font-size="8px" fill="#000000" x="161.55605799150553" y="3" font-family="sans-serif">IN_COUNTRY</text></g><g class="relationship" transform="translate(160.33866634372734 95.5057715039651) rotate(195.5587726449619)"><path class="outline" fill="#A5ABB6" stroke="none" d="M 40 1.5 L 45.33172008359365 1.5 L 45.33172008359365 -1.5 L 40 -1.5 Z M 103.18718883359365 1.5 L 108.5189089171873 1.5 L 108.5189089171873 4.5 L 117.5189089171873 0 L 108.5189089171873 -4.5 L 108.5189089171873 -1.5 L 103.18718883359365 -1.5 Z"/><text text-anchor="middle" pointer-events="none" font-size="8px" fill="#000000" x="74.25945445859365" y="3" transform="rotate(180 74.25945445859365 0)" font-family="sans-serif">IN_COUNTRY</text></g><g class="relationship" transform="translate(160.33866634372734 95.5057715039651) rotate(295.17023699656283)"><path class="outline" fill="#A5ABB6" stroke="none" d="M 40 1.5 L 97.53424531777752 1.5 L 97.53424531777752 -1.5 L 40 -1.5 Z M 155.3897140677775 1.5 L 212.92395938555504 1.5 L 212.92395938555504 4.5 L 221.92395938555504 0 L 212.92395938555504 -4.5 L 212.92395938555504 -1.5 L 155.3897140677775 -1.5 Z"/><text text-anchor="middle" pointer-events="none" font-size="8px" fill="#000000" x="126.46197969277752" y="3" font-family="sans-serif">IN_COUNTRY</text></g><g class="relationship" transform="translate(160.33866634372734 95.5057715039651) rotate(241.33286748482982)"><path class="outline" fill="#A5ABB6" stroke="none" d="M 27.22361107568208,-29.34493141924172 L 29.344931419241725,-27.223611075682076 A 64.77716989116848 64.77716989116848 0 0 1 47.356928888586566,-39.93133141590224 L 46.069791213069074,-42.64117949361129 A 67.77716989116848 67.77716989116848 0 0 0 27.22361107568208,-29.34493141924172 Z M 103.37256793344645,-43.04059758888289 L 102.12333044846123,-40.31307019101723 A 64.77716989116848 64.77716989116848 0 0 1 120.3107226530626,-27.857670804528823 L 118.21917951154015,-25.706985498132177 L 127.80855014301375,-22.658384033159805 L 124.49380893610748,-32.15904141732211 L 122.40226579458503,-30.00835611092546 A 67.77716989116848 67.77716989116848 0 0 0 103.37256793344645,-43.04059758888289"/><text text-anchor="middle" pointer-events="none" font-size="8px" fill="#000000" x="74.6873463432287" y="-44.694794884088566" transform="rotate(180 74.6873463432287 -47.694794884088566)" font-family="sans-serif">IN_COUNTRY</text></g><g class="relationship" transform="translate(160.33866634372734 95.5057715039651) rotate(241.33286748482982)"><path class="outline" fill="#A5ABB6" stroke="none" d="M 38.24880448390895,-11.801650543534432 L 39.025261619216515,-8.903873064667227 A 139.57259552454656 139.57259552454656 0 0 1 46.381652175636816,-10.662833540484996 L 45.76331470261911,-13.598418451446037 A 142.57259552454656 142.57259552454656 0 0 0 38.24880448390895,-11.801650543534432 Z M 103.82486254322924,-13.746174510121392 L 103.22147403951924,-10.807480529185199 A 139.57259552454656 139.57259552454656 0 0 1 110.58672172492498,-9.085983939962883 L 109.82502318210469,-6.184292135193564 L 119.6726464106431,-8.251734213886628 L 112.1101188105656,-14.88936754950152 L 111.3484202677453,-11.9876757447322 A 142.57259552454656 142.57259552454656 0 0 0 103.82486254322924,-13.746174510121392"/><text text-anchor="middle" pointer-events="none" font-size="8px" fill="#000000" x="74.79030462993228" y="-12.159237132134706" transform="rotate(180 74.79030462993228 -15.159237132134706)" font-family="sans-serif">IN_COUNTRY</text></g><g class="relationship" transform="translate(160.33866634372734 95.5057715039651) rotate(241.33286748482982)"><path class="outline" fill="#A5ABB6" stroke="none" d="M 38.24880448390895,11.801650543534432 L 39.025261619216515,8.903873064667227 A 139.57259552454656 139.57259552454656 0 0 0 46.38165217563686,10.662833540485025 L 45.763314702619155,13.598418451446037 A 142.57259552454656 142.57259552454656 0 0 1 38.24880448390895,11.801650543534432 Z M 103.82486254322932,13.746174510121364 L 103.22147403951931,10.80748052918517 A 139.57259552454656 139.57259552454656 0 0 0 110.58672172492498,9.085983939962883 L 109.82502318210469,6.184292135193564 L 119.6726464106431,8.251734213886628 L 112.1101188105656,14.88936754950152 L 111.3484202677453,11.9876757447322 A 142.57259552454656 142.57259552454656 0 0 1 103.82486254322932,13.746174510121364"/><text text-anchor="middle" pointer-events="none" font-size="8px" fill="#000000" x="74.79030462993234" y="18.159237132134706" transform="rotate(180 74.79030462993234 15.159237132134706)" font-family="sans-serif">IN_COUNTRY</text></g><g class="relationship" transform="translate(160.33866634372734 95.5057715039651) rotate(241.33286748482982)"><path class="outline" fill="#A5ABB6" stroke="none" d="M 27.22361107568208,29.34493141924172 L 29.344931419241725,27.223611075682076 A 64.77716989116848 64.77716989116848 0 0 0 47.356928888586566,39.93133141590224 L 46.06979121306908,42.64117949361129 A 67.77716989116848 67.77716989116848 0 0 1 27.22361107568208,29.34493141924172 Z M 103.37256793344648,43.040597588882875 L 102.12333044846125,40.31307019101722 A 64.77716989116848 64.77716989116848 0 0 0 120.3107226530626,27.857670804528823 L 118.21917951154015,25.706985498132177 L 127.80855014301375,22.658384033159805 L 124.49380893610748,32.15904141732211 L 122.40226579458503,30.00835611092546 A 67.77716989116848 67.77716989116848 0 0 1 103.37256793344648,43.040597588882875"/><text text-anchor="middle" pointer-events="none" font-size="8px" fill="#000000" x="74.68734634322871" y="50.694794884088566" transform="rotate(180 74.68734634322871 47.694794884088566)" font-family="sans-serif">IN_COUNTRY</text></g><g class="relationship" transform="translate(160.33866634372734 95.5057715039651) rotate(420.02645172494067)"><path class="outline" fill="#A5ABB6" stroke="none" d="M 40 1.5 L 42.96186210421361 1.5 L 42.96186210421361 -1.5 L 40 -1.5 Z M 100.81733085421361 1.5 L 103.77919295842722 1.5 L 103.77919295842722 4.5 L 112.77919295842722 0 L 103.77919295842722 -4.5 L 103.77919295842722 -1.5 L 100.81733085421361 -1.5 Z"/><text text-anchor="middle" pointer-events="none" font-size="8px" fill="#000000" x="71.88959647921361" y="3" font-family="sans-serif">IN_COUNTRY</text></g><g class="relationship" transform="translate(160.33866634372734 95.5057715039651) rotate(460.48253717595264)"><path class="outline" fill="#A5ABB6" stroke="none" d="M 38.24880448390895,-11.801650543534432 L 39.025261619216515,-8.903873064667227 A 147.12732359813444 147.12732359813444 0 0 1 48.291164200081326,-11.068114147725169 L 47.703643470757214,-14.010021588929675 A 150.12732359813444 150.12732359813444 0 0 0 38.24880448390895,-11.801650543534432 Z M 105.77456417045781,-14.154126708122192 L 105.20165148950252,-11.20933960885668 A 147.12732359813444 147.12732359813444 0 0 1 114.4781811728417,-9.09111225141833 L 113.71611539394772,-6.189516871521487 L 123.56400020197921,-8.255712604684804 L 116.00231273062965,-14.894303011212017 L 115.24024695173567,-11.992707631315174 A 150.12732359813444 150.12732359813444 0 0 0 105.77456417045781,-14.154126708122192"/><text text-anchor="middle" pointer-events="none" font-size="8px" fill="#000000" x="76.73579200327148" y="-12.416657423356895" transform="rotate(180 76.73579200327148 -15.416657423356895)" font-family="sans-serif">IN_COUNTRY</text></g><g class="relationship" transform="translate(160.33866634372734 95.5057715039651) rotate(460.48253717595264)"><path class="outline" fill="#A5ABB6" stroke="none" d="M 38.24880448390895,11.801650543534432 L 39.025261619216515,8.903873064667227 A 147.12732359813444 147.12732359813444 0 0 0 48.29116420008141,11.068114147725169 L 47.7036434707573,14.010021588929675 A 150.12732359813444 150.12732359813444 0 0 1 38.24880448390895,11.801650543534432 Z M 105.77456417045784,14.154126708122192 L 105.20165148950257,11.20933960885668 A 147.12732359813444 147.12732359813444 0 0 0 114.4781811728417,9.09111225141833 L 113.71611539394772,6.189516871521487 L 123.56400020197921,8.255712604684804 L 116.00231273062965,14.894303011212017 L 115.24024695173567,11.992707631315174 A 150.12732359813444 150.12732359813444 0 0 1 105.77456417045784,14.154126708122192"/><text text-anchor="middle" pointer-events="none" font-size="8px" fill="#000000" x="76.73579200327156" y="18.416657423356895" transform="rotate(180 76.73579200327156 15.416657423356895)" font-family="sans-serif">IN_COUNTRY</text></g><g class="relationship" transform="translate(160.33866634372734 95.5057715039651) rotate(312.406389487605)"><path class="outline" fill="#A5ABB6" stroke="none" d="M 40 1.5 L 68.98776374558109 1.5 L 68.98776374558109 -1.5 L 40 -1.5 Z M 126.84323249558109 1.5 L 155.83099624116218 1.5 L 155.83099624116218 4.5 L 164.83099624116218 0 L 155.83099624116218 -4.5 L 155.83099624116218 -1.5 L 126.84323249558109 -1.5 Z"/><text text-anchor="middle" pointer-events="none" font-size="8px" fill="#000000" x="97.91549812058109" y="3" font-family="sans-serif">IN_COUNTRY</text></g><g class="relationship" transform="translate(132.13898456698863 247.91686853649637) rotate(448.7726123514012)"><path class="outline" fill="#A5ABB6" stroke="none" d="M 32.5 1.5 L 50.956220108178016 1.5 L 50.956220108178016 -1.5 L 32.5 -1.5 Z M 81.95622010817802 1.5 L 100.41244021635603 1.5 L 100.41244021635603 4.5 L 109.41244021635603 0 L 100.41244021635603 -4.5 L 100.41244021635603 -1.5 L 81.95622010817802 -1.5 Z"/><text text-anchor="middle" pointer-events="none" font-size="8px" fill="#000000" x="66.45622010817802" y="3" font-family="sans-serif">LIVING</text></g><g class="relationship" transform="translate(293.4156777844015 -50.19951701895793) rotate(361.2929398336931)"><path class="outline" fill="#A5ABB6" stroke="none" d="M 32.5 1.5 L 74.60183613319052 1.5 L 74.60183613319052 -1.5 L 32.5 -1.5 Z M 105.60183613319052 1.5 L 147.70367226638103 1.5 L 147.70367226638103 4.5 L 156.70367226638103 0 L 147.70367226638103 -4.5 L 147.70367226638103 -1.5 L 105.60183613319052 -1.5 Z"/><text text-anchor="middle" pointer-events="none" font-size="8px" fill="#000000" x="90.10183613319052" y="3" font-family="sans-serif">LIVING</text></g><g class="relationship" transform="translate(399.7744911042537 36.76880645779019) rotate(315.0337836352106)"><path class="outline" fill="#A5ABB6" stroke="none" d="M 32.5 1.5 L 38.51160861222023 1.5 L 38.51160861222023 -1.5 L 32.5 -1.5 Z M 69.51160861222023 1.5 L 75.52321722444046 1.5 L 75.52321722444046 4.5 L 84.52321722444046 0 L 75.52321722444046 -4.5 L 75.52321722444046 -1.5 L 69.51160861222023 -1.5 Z"/><text text-anchor="middle" pointer-events="none" font-size="8px" fill="#000000" x="54.01160861222023" y="3" font-family="sans-serif">LIVING</text></g><g class="relationship" transform="translate(575.4446384425105 74.68930467925014) rotate(232.4048126367877)"><path class="outline" fill="#A5ABB6" stroke="none" d="M 32.5 1.5 L 56.11597774229887 1.5 L 56.11597774229887 -1.5 L 32.5 -1.5 Z M 87.11597774229887 1.5 L 110.73195548459773 1.5 L 110.73195548459773 4.5 L 119.73195548459773 0 L 110.73195548459773 -4.5 L 110.73195548459773 -1.5 L 87.11597774229887 -1.5 Z"/><text text-anchor="middle" pointer-events="none" font-size="8px" fill="#000000" x="71.61597774229887" y="3" transform="rotate(180 71.61597774229887 0)" font-family="sans-serif">LIVING</text></g><g class="relationship" transform="translate(388.1865178947095 134.16303958650224) rotate(297.65846997657553)"><path class="outline" fill="#A5ABB6" stroke="none" d="M 32.5 1.5 L 81.6637528083364 1.5 L 81.6637528083364 -1.5 L 32.5 -1.5 Z M 112.6637528083364 1.5 L 161.8275056166728 1.5 L 161.8275056166728 4.5 L 170.8275056166728 0 L 161.8275056166728 -4.5 L 161.8275056166728 -1.5 L 112.6637528083364 -1.5 Z"/><text text-anchor="middle" pointer-events="none" font-size="8px" fill="#000000" x="97.1637528083364" y="3" font-family="sans-serif">LIVING</text></g><g class="relationship" transform="translate(320.19212996497924 24.788177680010488) rotate(336.4661626159814)"><path class="outline" fill="#A5ABB6" stroke="none" d="M 32.5 1.5 L 68.55514977736775 1.5 L 68.55514977736775 -1.5 L 32.5 -1.5 Z M 99.55514977736775 1.5 L 135.6102995547355 1.5 L 135.6102995547355 4.5 L 144.6102995547355 0 L 135.6102995547355 -4.5 L 135.6102995547355 -1.5 L 99.55514977736775 -1.5 Z"/><text text-anchor="middle" pointer-events="none" font-size="8px" fill="#000000" x="84.05514977736775" y="3" font-family="sans-serif">LIVING</text></g><g class="relationship" transform="translate(458.67847447739837 223.43694333371184) rotate(275.0688339955275)"><path class="outline" fill="#A5ABB6" stroke="none" d="M 32.5 1.5 L 115.21239982610746 1.5 L 115.21239982610746 -1.5 L 32.5 -1.5 Z M 146.21239982610746 1.5 L 228.92479965221492 1.5 L 228.92479965221492 4.5 L 237.92479965221492 0 L 228.92479965221492 -4.5 L 228.92479965221492 -1.5 L 146.21239982610746 -1.5 Z"/><text text-anchor="middle" pointer-events="none" font-size="8px" fill="#000000" x="130.71239982610746" y="3" font-family="sans-serif">LIVING</text></g><g class="relationship" transform="translate(268.54751964299356 -134.76015123989305) rotate(382.5407416166554)"><path class="outline" fill="#A5ABB6" stroke="none" d="M 32.5 1.5 L 95.86292461340402 1.5 L 95.86292461340402 -1.5 L 32.5 -1.5 Z M 126.86292461340402 1.5 L 190.22584922680804 1.5 L 190.22584922680804 4.5 L 199.22584922680804 0 L 190.22584922680804 -4.5 L 190.22584922680804 -1.5 L 126.86292461340402 -1.5 Z"/><text text-anchor="middle" pointer-events="none" font-size="8px" fill="#000000" x="111.36292461340402" y="3" font-family="sans-serif">LIVING</text></g><g class="relationship" transform="translate(232.92016989362207 221.35476533819704) rotate(430.95409396825846)"><path class="outline" fill="#A5ABB6" stroke="none" d="M 32.5 1.5 L 49.962161114889824 1.5 L 49.962161114889824 -1.5 L 32.5 -1.5 Z M 80.96216111488982 1.5 L 98.42432222977965 1.5 L 98.42432222977965 4.5 L 107.42432222977965 0 L 98.42432222977965 -4.5 L 98.42432222977965 -1.5 L 80.96216111488982 -1.5 Z"/><text text-anchor="middle" pointer-events="none" font-size="8px" fill="#000000" x="65.46216111488982" y="3" font-family="sans-serif">LIVING</text></g><g class="relationship" transform="translate(87.84927146434582 -37.07932112418705) rotate(286.088155388784)"><path class="outline" fill="#A5ABB6" stroke="none" d="M 32.5 1.5 L 47.920473288764015 1.5 L 47.920473288764015 -1.5 L 32.5 -1.5 Z M 78.92047328876401 1.5 L 94.34094657752803 1.5 L 94.34094657752803 4.5 L 103.34094657752803 0 L 94.34094657752803 -4.5 L 94.34094657752803 -1.5 L 78.92047328876401 -1.5 Z"/><text text-anchor="middle" pointer-events="none" font-size="8px" fill="#000000" x="63.420473288764015" y="3" font-family="sans-serif">LIVING</text></g><g class="relationship" transform="translate(87.84927146434582 -37.07932112418705) rotate(191.10406122743916)"><path class="outline" fill="#A5ABB6" stroke="none" d="M 32.5 1.5 L 51.62177243670992 1.5 L 51.62177243670992 -1.5 L 32.5 -1.5 Z M 82.62177243670992 1.5 L 101.74354487341984 1.5 L 101.74354487341984 4.5 L 110.74354487341984 0 L 101.74354487341984 -4.5 L 101.74354487341984 -1.5 L 82.62177243670992 -1.5 Z"/><text text-anchor="middle" pointer-events="none" font-size="8px" fill="#000000" x="67.12177243670992" y="3" transform="rotate(180 67.12177243670992 0)" font-family="sans-serif">LIVING</text></g><g class="relationship" transform="translate(87.84927146434582 -37.07932112418705) rotate(222.85769940747355)"><path class="outline" fill="#A5ABB6" stroke="none" d="M 32.5 1.5 L 53.91926391874297 1.5 L 53.91926391874297 -1.5 L 32.5 -1.5 Z M 84.91926391874297 1.5 L 106.33852783748594 1.5 L 106.33852783748594 4.5 L 115.33852783748594 0 L 106.33852783748594 -4.5 L 106.33852783748594 -1.5 L 84.91926391874297 -1.5 Z"/><text text-anchor="middle" pointer-events="none" font-size="8px" fill="#000000" x="69.41926391874297" y="3" transform="rotate(180 69.41926391874297 0)" font-family="sans-serif">LIVING</text></g><g class="relationship" transform="translate(87.84927146434582 -37.07932112418705) rotate(252.62208214851302)"><path class="outline" fill="#A5ABB6" stroke="none" d="M 32.5 1.5 L 51.79887894374377 1.5 L 51.79887894374377 -1.5 L 32.5 -1.5 Z M 82.79887894374377 1.5 L 102.09775788748755 1.5 L 102.09775788748755 4.5 L 111.09775788748755 0 L 102.09775788748755 -4.5 L 102.09775788748755 -1.5 L 82.79887894374377 -1.5 Z"/><text text-anchor="middle" pointer-events="none" font-size="8px" fill="#000000" x="67.29887894374377" y="3" transform="rotate(180 67.29887894374377 0)" font-family="sans-serif">LIVING</text></g><g class="relationship" transform="translate(15.817077399380713 55.26669395856599) rotate(185.29634475614006)"><path class="outline" fill="#A5ABB6" stroke="none" d="M 32.5 1.5 L 56.485985924740106 1.5 L 56.485985924740106 -1.5 L 32.5 -1.5 Z M 87.4859859247401 1.5 L 111.47197184948021 1.5 L 111.47197184948021 4.5 L 120.47197184948021 0 L 111.47197184948021 -4.5 L 111.47197184948021 -1.5 L 87.4859859247401 -1.5 Z"/><text text-anchor="middle" pointer-events="none" font-size="8px" fill="#000000" x="71.9859859247401" y="3" transform="rotate(180 71.9859859247401 0)" font-family="sans-serif">LIVING</text></g><g class="relationship" transform="translate(9.676828457497667 134.01791681403884) rotate(525.1741570637369)"><path class="outline" fill="#A5ABB6" stroke="none" d="M 32.5 1.5 L 55.71244951630452 1.5 L 55.71244951630452 -1.5 L 32.5 -1.5 Z M 86.71244951630452 1.5 L 109.92489903260903 1.5 L 109.92489903260903 4.5 L 118.92489903260903 0 L 109.92489903260903 -4.5 L 109.92489903260903 -1.5 L 86.71244951630452 -1.5 Z"/><text text-anchor="middle" pointer-events="none" font-size="8px" fill="#000000" x="71.21244951630452" y="3" transform="rotate(180 71.21244951630452 0)" font-family="sans-serif">LIVING</text></g><g class="relationship" transform="translate(50.33597833110024 202.14208412070002) rotate(504.1534189704938)"><path class="outline" fill="#A5ABB6" stroke="none" d="M 32.5 1.5 L 55.46181575183441 1.5 L 55.46181575183441 -1.5 L 32.5 -1.5 Z M 86.46181575183441 1.5 L 109.42363150366882 1.5 L 109.42363150366882 4.5 L 118.42363150366882 0 L 109.42363150366882 -4.5 L 109.42363150366882 -1.5 L 86.46181575183441 -1.5 Z"/><text text-anchor="middle" pointer-events="none" font-size="8px" fill="#000000" x="70.96181575183441" y="3" transform="rotate(180 70.96181575183441 0)" font-family="sans-serif">LIVING</text></g></g><g class="layer nodes"><g class="node" transform="translate(44.329964400613036,365.0993499684973)"><circle class="outline" cx="0" cy="0" r="32.5" fill="#FFD86E" stroke="#EDBA39" stroke-width="2px"/><text text-anchor="middle" pointer-events="none" y="5" font-size="10px" fill="#604A0E" font-family="sans-serif"> User №3</text></g><g class="node selected" transform="translate(160.33866634372734,95.5057715039651)"><circle class="outline" cx="0" cy="0" r="40" fill="#68BDF6" stroke="#5CA8DB" stroke-width="2px"/><text text-anchor="middle" pointer-events="none" y="5" font-size="10px" fill="#FFFFFF" font-family="sans-serif"> All сountries</text></g><g class="node" transform="translate(132.13898456698863,247.91686853649637)"><circle class="outline" cx="0" cy="0" r="32.5" fill="#6DCE9E" stroke="#60B58B" stroke-width="2px"/><text text-anchor="middle" pointer-events="none" y="5" font-size="10px" fill="#FFFFFF" font-family="sans-serif"> France</text></g><g class="node" transform="translate(135.17879406250387,389.7967481755481)"><circle class="outline" cx="0" cy="0" r="32.5" fill="#FFD86E" stroke="#EDBA39" stroke-width="2px"/><text text-anchor="middle" pointer-events="none" y="5" font-size="10px" fill="#604A0E" font-family="sans-serif"> User №5</text></g><g class="node" transform="translate(293.4156777844015,-50.19951701895793)"><circle class="outline" cx="0" cy="0" r="32.5" fill="#6DCE9E" stroke="#60B58B" stroke-width="2px"/><text text-anchor="middle" pointer-events="none" y="5" font-size="10px" fill="#FFFFFF" font-family="sans-serif"> Mongolia</text></g><g class="node" transform="translate(482.5711782920368,-45.93029849677973)"><circle class="outline" cx="0" cy="0" r="32.5" fill="#FFD86E" stroke="#EDBA39" stroke-width="2px"/><text text-anchor="middle" pointer-events="none" y="-5" font-size="10px" fill="#604A0E" font-family="sans-serif"> No data</text><text text-anchor="middle" pointer-events="none" y="5" font-size="10px" fill="#604A0E" font-family="sans-serif"> about</text><text text-anchor="middle" pointer-events="none" y="15" font-size="10px" fill="#604A0E" font-family="sans-serif"> students</text></g><g class="node" transform="translate(278.581059718768,353.6192696159476)"><circle class="outline" cx="0" cy="0" r="32.5" fill="#FFD86E" stroke="#EDBA39" stroke-width="2px"/><text text-anchor="middle" pointer-events="none" y="5" font-size="10px" fill="#604A0E" font-family="sans-serif"> User №2</text></g><g class="node" transform="translate(232.92016989362207,221.35476533819704)"><circle class="outline" cx="0" cy="0" r="32.5" fill="#6DCE9E" stroke="#60B58B" stroke-width="2px"/><text text-anchor="middle" pointer-events="none" y="5" font-size="10px" fill="#FFFFFF" font-family="sans-serif"> Germany</text></g><g class="node" transform="translate(125.49297501148907,-167.60025565322582)"><circle class="outline" cx="0" cy="0" r="32.5" fill="#FFD86E" stroke="#EDBA39" stroke-width="2px"/><text text-anchor="middle" pointer-events="none" y="5" font-size="10px" fill="#604A0E" font-family="sans-serif"> User №1</text></g><g class="node" transform="translate(87.84927146434582,-37.07932112418705)"><circle class="outline" cx="0" cy="0" r="32.5" fill="#6DCE9E" stroke="#60B58B" stroke-width="2px"/><text text-anchor="middle" pointer-events="none" y="5" font-size="10px" fill="#FFFFFF" font-family="sans-serif"> Russia</text></g><g class="node" transform="translate(44.96049833441074,-174.122632561566)"><circle class="outline" cx="0" cy="0" r="32.5" fill="#FFD86E" stroke="#EDBA39" stroke-width="2px"/><text text-anchor="middle" pointer-events="none" y="5" font-size="10px" fill="#604A0E" font-family="sans-serif"> User №4</text></g><g class="node" transform="translate(-20.5230613285848,-137.63611004553934)"><circle class="outline" cx="0" cy="0" r="32.5" fill="#FFD86E" stroke="#EDBA39" stroke-width="2px"/><text text-anchor="middle" pointer-events="none" y="5" font-size="10px" fill="#604A0E" font-family="sans-serif"> User №6</text></g><g class="node" transform="translate(-52.71261318644506,-64.6668134227125)"><circle class="outline" cx="0" cy="0" r="32.5" fill="#FFD86E" stroke="#EDBA39" stroke-width="2px"/><text text-anchor="middle" pointer-events="none" y="5" font-size="10px" fill="#604A0E" font-family="sans-serif"> User №7</text></g><g class="node" transform="translate(268.54751964299356,-134.76015123989305)"><circle class="outline" cx="0" cy="0" r="32.5" fill="#6DCE9E" stroke="#60B58B" stroke-width="2px"/><text text-anchor="middle" pointer-events="none" y="5" font-size="10px" fill="#FFFFFF" font-family="sans-serif"> Ukraine</text></g><g class="node" transform="translate(-136.5017942363055,41.14630036810573)"><circle class="outline" cx="0" cy="0" r="32.5" fill="#FFD86E" stroke="#EDBA39" stroke-width="2px"/><text text-anchor="middle" pointer-events="none" y="5" font-size="10px" fill="#604A0E" font-family="sans-serif"> User №8</text></g><g class="node" transform="translate(15.817077399380713,55.26669395856599)"><circle class="outline" cx="0" cy="0" r="32.5" fill="#6DCE9E" stroke="#60B58B" stroke-width="2px"/><text text-anchor="middle" pointer-events="none" y="5" font-size="10px" fill="#FFFFFF" font-family="sans-serif"> China</text></g><g class="node" transform="translate(458.67847447739837,223.43694333371184)"><circle class="outline" cx="0" cy="0" r="32.5" fill="#6DCE9E" stroke="#60B58B" stroke-width="2px"/><text text-anchor="middle" pointer-events="none" y="5" font-size="10px" fill="#FFFFFF" font-family="sans-serif"> Sweden</text></g><g class="node" transform="translate(-136.70684387582514,172.76479438173743)"><circle class="outline" cx="0" cy="0" r="32.5" fill="#FFD86E" stroke="#EDBA39" stroke-width="2px"/><text text-anchor="middle" pointer-events="none" y="5" font-size="10px" fill="#604A0E" font-family="sans-serif"> User №9</text></g><g class="node" transform="translate(9.676828457497667,134.01791681403884)"><circle class="outline" cx="0" cy="0" r="32.5" fill="#6DCE9E" stroke="#60B58B" stroke-width="2px"/><text text-anchor="middle" pointer-events="none" y="5" font-size="10px" fill="#FFFFFF" font-family="sans-serif"> Finland</text></g><g class="node" transform="translate(-72.00090400285215,290.5255088510413)"><circle class="outline" cx="0" cy="0" r="32.5" fill="#FFD86E" stroke="#EDBA39" stroke-width="2px"/><text text-anchor="middle" pointer-events="none" y="5" font-size="10px" fill="#604A0E" font-family="sans-serif"> User №10</text></g><g class="node" transform="translate(50.33597833110024,202.14208412070002)"><circle class="outline" cx="0" cy="0" r="32.5" fill="#6DCE9E" stroke="#60B58B" stroke-width="2px"/><text text-anchor="middle" pointer-events="none" y="5" font-size="10px" fill="#FFFFFF" font-family="sans-serif"> Belorussia</text></g><g class="node" transform="translate(320.19212996497924,24.788177680010488)"><circle class="outline" cx="0" cy="0" r="32.5" fill="#6DCE9E" stroke="#60B58B" stroke-width="2px"/><text text-anchor="middle" pointer-events="none" y="5" font-size="10px" fill="#FFFFFF" font-family="sans-serif"> Norway</text></g><g class="node" transform="translate(388.1865178947095,134.16303958650224)"><circle class="outline" cx="0" cy="0" r="32.5" fill="#6DCE9E" stroke="#60B58B" stroke-width="2px"/><text text-anchor="middle" pointer-events="none" y="5" font-size="10px" fill="#FFFFFF" font-family="sans-serif"> Poland</text></g><g class="node" transform="translate(575.4446384425105,74.68930467925014)"><circle class="outline" cx="0" cy="0" r="32.5" fill="#6DCE9E" stroke="#60B58B" stroke-width="2px"/><text text-anchor="middle" pointer-events="none" y="0" font-size="10px" fill="#FFFFFF" font-family="sans-serif"> Czech</text><text text-anchor="middle" pointer-events="none" y="10" font-size="10px" fill="#FFFFFF" font-family="sans-serif"> Republic</text></g><g class="node" transform="translate(399.7744911042537,36.76880645779019)"><circle class="outline" cx="0" cy="0" r="32.5" fill="#6DCE9E" stroke="#60B58B" stroke-width="2px"/><text text-anchor="middle" pointer-events="none" y="5" font-size="10px" fill="#FFFFFF" font-family="sans-serif"> Kazakhstan</text></g></g></svg>